<?xml version="1.0" encoding="UTF-8" standalone="no"?>
<!-- Created with Inkscape (http://www.inkscape.org/) -->

<svg
   xmlns:dc="http://purl.org/dc/elements/1.1/"
   xmlns:cc="http://creativecommons.org/ns#"
   xmlns:rdf="http://www.w3.org/1999/02/22-rdf-syntax-ns#"
   xmlns:svg="http://www.w3.org/2000/svg"
   xmlns="http://www.w3.org/2000/svg"
   xmlns:xlink="http://www.w3.org/1999/xlink"
   xmlns:sodipodi="http://sodipodi.sourceforge.net/DTD/sodipodi-0.dtd"
   xmlns:inkscape="http://www.inkscape.org/namespaces/inkscape"
   id="svg2"
   version="1.1"
   inkscape:version="0.92.3 (2405546, 2018-03-11)"
   width="744.1"
   height="1052.3625"
   xml:space="preserve"
   sodipodi:docname="Notaufnahmeregister_Logo_2018-07-18_divi.svg"><metadata
     id="metadata8"><rdf:RDF><cc:Work
         rdf:about=""><dc:format>image/svg+xml</dc:format><dc:type
           rdf:resource="http://purl.org/dc/dcmitype/StillImage" /><dc:title></dc:title></cc:Work></rdf:RDF></metadata><defs
     id="defs6"><linearGradient
       inkscape:collect="always"
       id="linearGradient5537"><stop
         style="stop-color:#000000;stop-opacity:1;"
         offset="0"
         id="stop5533" /><stop
         style="stop-color:#000000;stop-opacity:0;"
         offset="1"
         id="stop5535" /></linearGradient><clipPath
       clipPathUnits="userSpaceOnUse"
       id="clipPath126"><path
         d="m 0,841.89 595.28,0 L 595.28,0 0,0 0,841.89 z"
         id="path128" /></clipPath><linearGradient
       inkscape:collect="always"
       xlink:href="#linearGradient5537"
       id="linearGradient5539"
       x1="150.78709"
       y1="-650.89302"
       x2="263.1292"
       y2="-650.89302"
       gradientUnits="userSpaceOnUse"
       gradientTransform="matrix(1.8234363,0,0,1.3082954,-107.39733,200.82425)" /></defs><sodipodi:namedview
     pagecolor="#ffffff"
     bordercolor="#666666"
     borderopacity="1"
     objecttolerance="10"
     gridtolerance="10"
     guidetolerance="10"
     inkscape:pageopacity="0"
     inkscape:pageshadow="2"
     inkscape:window-width="1920"
     inkscape:window-height="1178"
     id="namedview4"
     showgrid="false"
     inkscape:zoom="1.3722882"
     inkscape:cx="152.4194"
     inkscape:cy="832.9796"
     inkscape:window-x="1912"
     inkscape:window-y="-8"
     inkscape:window-maximized="1"
     inkscape:current-layer="g10"
     showguides="true"><inkscape:grid
       type="xygrid"
       id="grid114" /></sodipodi:namedview><g
     id="g10"
     inkscape:groupmode="layer"
     inkscape:label="AKTIN_Logo"
     transform="matrix(1.25,0,0,-1.25,0,1052.3625)"><g
   clip-path="url(#clipPath126)"
   id="g124"
   transform="translate(-30.896211,-44.644623)"
   inkscape:export-xdpi="600"
   inkscape:export-ydpi="600"><g
     transform="translate(100.9043,683.2998)"
     id="g130"><path
       inkscape:connector-curvature="0"
       id="path132"
       style="fill:#890700;fill-opacity:1;fill-rule:nonzero;stroke:none;stroke-width:0.94999999"
       d="m -8.0031656,-16 c 0,0 -4.3253504,60.8095 60.3838996,104.16085 1.9874,1.33095 8.57945,4.45455 12.36235,5.035 8.9908,1.3794 25.67185,3.1426 35.835896,-0.67165 0,0 -53.945746,-10.23245 -80.160046,-48.2258 0,0 -21.8300496,-28.93415 -28.4220996,-60.2984" /></g><g
     transform="translate(130.0059,732.6392)"
     id="g134"><path
       inkscape:connector-curvature="0"
       id="path136"
       style="fill:#e3000b;fill-opacity:1;fill-rule:nonzero;stroke:none;stroke-width:0.94999999"
       d="m -8,-16 c 0,0 24.0863,47.12285 96.672,57.6555 0,0 11.2518,2.8025 34.45935,-12.02035 0,0 -79.8057,7.4917 -131.13135,-45.63515" /></g><g
     transform="translate(157.0117,745.2153)"
     id="g138"><path
       inkscape:connector-curvature="0"
       id="path140"
       style="fill:#fa9b06;fill-opacity:1;fill-rule:nonzero;stroke:none;stroke-width:0.94999999"
       d="m -8,-16 c 0,0 49.3867,28.899 106.92155,26.14495 0,0 10.41105,-3.45325 20.5865,-11.68215 0,0 -38.5149,5.4777 -90.497,-11.1283 0,0 -11.18625,2.26005 -37.01105,-3.3345" /></g><g
     transform="translate(239.5645,716.0469)"
     id="g142"><path
       inkscape:connector-curvature="0"
       id="path144"
       style="fill:none;fill-opacity:1;stroke:#000000;stroke-width:3.85899997;stroke-linecap:butt;stroke-linejoin:miter;stroke-miterlimit:4;stroke-dasharray:none;stroke-opacity:1"
       d="m -39.712158,-20.512152 -6.51149,0.136859 c -3.479,0.419 -4.215843,4.619115 -4.215843,4.619115 -2.108198,10.309385 -4.29784,8.8865825 -4.29784,8.8865825 -2.372904,-0.4259542 -4.014927,-8.4626375 -4.014927,-8.4626375 -0.912396,-3.680661 -2.533552,-4.687604 -3.516031,-4.870083 -2.650981,0.02106 -4.776052,0.0851 -5.736859,-0.8 -1.045067,-0.628345 -5.683737,-32.664618 -5.683737,-32.664618 l -2.979404,82.264618 c -1.764048,-19.4835859 -2.072255,-37.444083 -4.018892,-56.910456 -0.667277,-4.399393 -0.533874,-4.786278 -5.64793,7.500815 m 0,0 c -0.403355,0.964926 -4.86451,-0.410506 -6.091696,0.785274 -1.138253,1.109124 -1.962882,5.974427 -5.299339,5.905464 -2.826004,-0.10981 -3.808454,-3.783892 -3.808454,-3.783892 -1.26183,-3.61216 -6.59767,-2.837802 -7.88181,-2.837802 l -18.91769,-0.01147"
       sodipodi:nodetypes="ccccccccccccscccc" /></g></g><rect
   style="fill:url(#linearGradient5539);fill-opacity:1;stroke:none;stroke-width:1.25663471;stroke-linecap:round;stroke-miterlimit:4;stroke-dasharray:none;stroke-opacity:1;opacity:1;"
   id="rect5529"
   width="208.24802"
   height="3.9107606"
   x="168.04262"
   y="-652.87585"
   transform="scale(1,-1)"
   inkscape:export-xdpi="600"
   inkscape:export-ydpi="600" /><text
   xml:space="preserve"
   style="font-style:normal;font-variant:normal;font-weight:bold;font-stretch:normal;font-size:27.73333359px;line-height:1.25;font-family:sans-serif;-inkscape-font-specification:'sans-serif, Bold';font-variant-ligatures:normal;font-variant-caps:normal;font-variant-numeric:normal;font-feature-settings:normal;text-align:start;letter-spacing:0px;word-spacing:0px;writing-mode:lr-tb;text-anchor:start;fill:#000000;fill-opacity:1;stroke:none;stroke-width:0.80000001"
   x="166.50867"
   y="-658.79181"
   id="text5555"
   transform="scale(1,-1)"
   inkscape:export-xdpi="600"
   inkscape:export-ydpi="600"><tspan
     sodipodi:role="line"
     id="tspan5553"
     x="166.50867"
     y="-658.79181"
     style="font-style:normal;font-variant:normal;font-weight:bold;font-stretch:normal;font-size:27.73333359px;font-family:sans-serif;-inkscape-font-specification:'sans-serif, Bold';font-variant-ligatures:normal;font-variant-caps:normal;font-variant-numeric:normal;font-feature-settings:normal;text-align:start;writing-mode:lr-tb;text-anchor:start;stroke-width:0.80000001">Notaufnahme</tspan><tspan
     sodipodi:role="line"
     x="166.50867"
     y="-624.12512"
     style="font-style:normal;font-variant:normal;font-weight:bold;font-stretch:normal;font-size:27.73333359px;font-family:sans-serif;-inkscape-font-specification:'sans-serif, Bold';font-variant-ligatures:normal;font-variant-caps:normal;font-variant-numeric:normal;font-feature-settings:normal;text-align:start;writing-mode:lr-tb;text-anchor:start;stroke-width:0.80000001"
     id="tspan5557">Register</tspan></text>












<ellipse
   style="fill:#000000;fill-opacity:1;stroke:none;stroke-width:1.00129974;stroke-linecap:round;stroke-linejoin:round;stroke-miterlimit:4;stroke-dasharray:none;stroke-opacity:1"
   id="path33"
   transform="scale(1,-1)"
   ry="1.0257336"
   rx="1.8900869"
   cy="-700.22565"
   cx="132.01921" /><circle
   style="fill:#000000;fill-opacity:1;stroke:none;stroke-width:1.43537831;stroke-linecap:round;stroke-linejoin:round;stroke-miterlimit:4;stroke-dasharray:none;stroke-opacity:1"
   id="path33-8"
   cy="-618.30933"
   cx="135.04028"
   transform="scale(1,-1)"
   r="1.9960001" /><circle
   style="fill:#000000;fill-opacity:1;stroke:none;stroke-width:1.43537831;stroke-linecap:round;stroke-linejoin:round;stroke-miterlimit:4;stroke-dasharray:none;stroke-opacity:1"
   id="path33-8-1"
   cy="-699.76495"
   cx="132.00697"
   r="1.9960001"
   transform="scale(1,-1)" /></g></svg>