<?xml version="1.0" encoding="UTF-8" standalone="no"?>
<svg
   xmlns:dc="http://purl.org/dc/elements/1.1/"
   xmlns:cc="http://creativecommons.org/ns#"
   xmlns:rdf="http://www.w3.org/1999/02/22-rdf-syntax-ns#"
   xmlns:svg="http://www.w3.org/2000/svg"
   xmlns="http://www.w3.org/2000/svg"
   xmlns:xlink="http://www.w3.org/1999/xlink"
   xmlns:sodipodi="http://sodipodi.sourceforge.net/DTD/sodipodi-0.dtd"
   xmlns:inkscape="http://www.inkscape.org/namespaces/inkscape"
   width="540.33984pt"
   height="173.14853pt"
   viewBox="0 0 540.33984 173.14853"
   version="1.1"
   id="svg2"
   inkscape:version="0.92.3 (2405546, 2018-03-11)"
   sodipodi:docname="Notaufnahmeregister_Logo_2021-03-15.svg">
  <metadata
     id="metadata37">
    <rdf:RDF>
      <cc:Work
         rdf:about="">
        <dc:format>image/svg+xml</dc:format>
        <dc:type
           rdf:resource="http://purl.org/dc/dcmitype/StillImage" />
        <dc:title></dc:title>
      </cc:Work>
    </rdf:RDF>
  </metadata>
  <sodipodi:namedview
     pagecolor="#ffffff"
     bordercolor="#666666"
     borderopacity="1"
     objecttolerance="10"
     gridtolerance="10"
     guidetolerance="10"
     inkscape:pageopacity="0"
     inkscape:pageshadow="2"
     inkscape:window-width="1920"
     inkscape:window-height="986"
     id="namedview35"
     showgrid="false"
     fit-margin-top="0"
     fit-margin-left="0"
     fit-margin-right="0"
     fit-margin-bottom="0"
     showborder="false"
     inkscape:zoom="1.3182814"
     inkscape:cx="75.64327"
     inkscape:cy="45.805367"
     inkscape:window-x="-11"
     inkscape:window-y="-11"
     inkscape:window-maximized="1"
     inkscape:current-layer="surface1" />
  <defs
     id="defs4">
    <clipPath
       id="clip1">
      <path
         d="m 0,618.85156 170,0 L 170,792 0,792 Z m 0,0"
         id="path7"
         inkscape:connector-curvature="0" />
    </clipPath>
    <clipPath
       id="clip2">
      <path
         d="m 461,693 79.33984,0 0,99 L 461,792 Z m 0,0"
         id="path10"
         inkscape:connector-curvature="0" />
    </clipPath>
    <linearGradient
       inkscape:collect="always"
       xlink:href="#linearGradient5537"
       id="linearGradient5539"
       x1="150.78709"
       y1="-650.89301"
       x2="263.12921"
       y2="-650.89301"
       gradientUnits="userSpaceOnUse"
       gradientTransform="matrix(1.7094716,0,0,1.9128961,-139.98049,1992.0104)" />
    <linearGradient
       inkscape:collect="always"
       id="linearGradient5537">
      <stop
         style="stop-color:#000000;stop-opacity:1;"
         offset="0"
         id="stop5533" />
      <stop
         style="stop-color:#000000;stop-opacity:0;"
         offset="1"
         id="stop5535" />
    </linearGradient>
  </defs>
  <g
     id="surface1"
     transform="translate(0,-618.85156)">
    <g
       clip-path="url(#clip1)"
       id="g13"
       style="clip-rule:nonzero">
      <path
         style="fill:#890700;fill-opacity:1;fill-rule:nonzero;stroke:none"
         d="m 0.09375,791.72266 c 0,0 -6.746094,-94.85157 94.1875,-162.47266 3.101562,-2.07422 13.38281,-6.94531 19.28125,-7.85156 14.02344,-2.15235 40.04297,-4.90625 55.89844,1.04687 0,0 -84.144534,15.95703 -125.035159,75.22266 0,0 -34.050781,45.1289 -44.332031,94.05469"
         id="path15"
         inkscape:connector-curvature="0" />
    </g>
    <path
       style="fill:#e3000b;fill-opacity:1;fill-rule:nonzero;stroke:none"
       d="m 43.21875,718.60547 c 0,0 37.566406,-73.5 150.78516,-89.92969 0,0 17.55078,-4.36719 53.7539,18.75 0,0 -124.48437,-11.68359 -204.53906,71.17969"
       id="path17"
       inkscape:connector-curvature="0" />
    <path
       style="fill:#fa9b06;fill-opacity:1;fill-rule:nonzero;stroke:none"
       d="m 83.234375,699.97266 c 0,0 77.035155,-45.07813 166.773435,-40.77735 0,0 16.24219,5.38281 32.11328,18.21875 0,0 -60.07422,-8.54687 -141.15625,17.35938 0,0 -17.44921,-3.52735 -57.730465,5.19922"
       id="path19"
       inkscape:connector-curvature="0" />
    <path
       style="fill:none;stroke:#211e1e;stroke-width:57.20000076;stroke-linecap:butt;stroke-linejoin:miter;stroke-miterlimit:4;stroke-opacity:1"
       d="m 1912.2656,488.04687 c 0,0 -190.7812,0.13807 -285.0089,1.61088 -27.6682,0.43246 -33.8285,70.87881 -48.7182,127.15661 -14.8896,56.2778 -17.8988,138.99798 -69.9756,139.69907 -44.1116,0.59386 -55.6048,-76.99296 -62.4368,-116.69332 -6.832,-39.70036 -9.6527,-105.35487 -30.9953,-141.18591 -15.9417,-26.76369 -91.0937,9.93956 -98.44,-33.42104 -27.9645,-165.0567 -75.5456,-619.68047 -83.0189,-462.674098 -10.5528,221.701658 -45.8056,1219.592138 -46.25,1220.703138 l -60.636,-684.33595 c -7.1058,-60.11719 -23.8765,-166.84646 -22.6551,-166.84646 -38.1714,-124.76716 -42.7328,89.85197 -79.037,100.57261 -45.62746,13.47378 -74.41349,-1.68564 -83.54613,36.5123 -18.57906,77.70831 -27.005,104.18469 -70.87076,103.29656 -22.4043,-0.45361 -41.33478,-51.7116 -54.89238,-100.09314 -11.89157,-42.43613 -58.06211,-34.73867 -101.39189,-35.97919 -338.48608,-9.69078 -346.32773,-9.23908 -399.37832,-10.62135"
       transform="matrix(0.1,0,0,-0.1,0,792)"
       id="path21"
       inkscape:connector-curvature="0"
       sodipodi:nodetypes="cszazssscccsssssc" />
    <rect
       style="opacity:1;fill:url(#linearGradient5539);fill-opacity:1;stroke:none;stroke-width:1.47125316;stroke-linecap:round;stroke-miterlimit:4;stroke-dasharray:none;stroke-opacity:1"
       id="rect5529"
       width="195.23253"
       height="5.7180352"
       x="118.24444"
       y="743.79181"
       inkscape:export-xdpi="600"
       inkscape:export-ydpi="600"
       transform="matrix(1,0,0.09712723,0.99527197,0,0)" />
    <text
       xml:space="preserve"
       style="font-style:normal;font-variant:normal;font-weight:bold;font-stretch:normal;font-size:26.00000191px;line-height:1.25;font-family:sans-serif;-inkscape-font-specification:'sans-serif, Bold';font-variant-ligatures:normal;font-variant-caps:normal;font-variant-numeric:normal;font-feature-settings:normal;text-align:start;letter-spacing:0px;word-spacing:0px;writing-mode:lr-tb;text-anchor:start;fill:#000000;fill-opacity:1;stroke:none;stroke-width:0.75"
       x="169.19849"
       y="735.07428"
       id="text5555"
       inkscape:export-xdpi="600"
       inkscape:export-ydpi="600"><tspan
         sodipodi:role="line"
         id="tspan5553"
         x="169.19849"
         y="735.07428"
         style="font-style:normal;font-variant:normal;font-weight:bold;font-stretch:normal;font-size:28px;font-family:sans-serif;-inkscape-font-specification:'sans-serif, Bold';font-variant-ligatures:normal;font-variant-caps:normal;font-variant-numeric:normal;font-feature-settings:normal;text-align:start;writing-mode:lr-tb;text-anchor:start;fill:#000000;fill-opacity:1;stroke-width:0.75">Notaufnahme</tspan><tspan
         sodipodi:role="line"
         x="169.19849"
         y="770.07428"
         style="font-style:normal;font-variant:normal;font-weight:bold;font-stretch:normal;font-size:28px;font-family:sans-serif;-inkscape-font-specification:'sans-serif, Bold';font-variant-ligatures:normal;font-variant-caps:normal;font-variant-numeric:normal;font-feature-settings:normal;text-align:start;writing-mode:lr-tb;text-anchor:start;fill:#000000;fill-opacity:1;stroke-width:0.75"
         id="tspan5557">Register</tspan></text>
  </g>
</svg>
