<?xml version="1.0" encoding="UTF-8" standalone="no"?>
<svg
   xmlns:dc="http://purl.org/dc/elements/1.1/"
   xmlns:cc="http://creativecommons.org/ns#"
   xmlns:rdf="http://www.w3.org/1999/02/22-rdf-syntax-ns#"
   xmlns:svg="http://www.w3.org/2000/svg"
   xmlns="http://www.w3.org/2000/svg"
   xmlns:sodipodi="http://sodipodi.sourceforge.net/DTD/sodipodi-0.dtd"
   xmlns:inkscape="http://www.inkscape.org/namespaces/inkscape"
   width="540.33984pt"
   height="173.14853pt"
   viewBox="0 0 540.33984 173.14853"
   version="1.1"
   id="svg2"
   inkscape:version="0.91 r13725"
   sodipodi:docname="AKTIN_Logo_final.svg">
  <metadata
     id="metadata37">
    <rdf:RDF>
      <cc:Work
         rdf:about="">
        <dc:format>image/svg+xml</dc:format>
        <dc:type
           rdf:resource="http://purl.org/dc/dcmitype/StillImage" />
        <dc:title></dc:title>
      </cc:Work>
    </rdf:RDF>
  </metadata>
  <sodipodi:namedview
     pagecolor="#ffffff"
     bordercolor="#666666"
     borderopacity="1"
     objecttolerance="10"
     gridtolerance="10"
     guidetolerance="10"
     inkscape:pageopacity="0"
     inkscape:pageshadow="2"
     inkscape:window-width="1920"
     inkscape:window-height="1018"
     id="namedview35"
     showgrid="false"
     fit-margin-top="0"
     fit-margin-left="0"
     fit-margin-right="0"
     fit-margin-bottom="0"
     showborder="false"
     inkscape:zoom="0.95353535"
     inkscape:cx="240.81288"
     inkscape:cy="47.463483"
     inkscape:window-x="-8"
     inkscape:window-y="-8"
     inkscape:window-maximized="1"
     inkscape:current-layer="svg2" />
  <defs
     id="defs4">
    <clipPath
       id="clip1">
      <path
         d="m 0,618.85156 170,0 L 170,792 0,792 Z m 0,0"
         id="path7"
         inkscape:connector-curvature="0" />
    </clipPath>
    <clipPath
       id="clip2">
      <path
         d="m 461,693 79.33984,0 0,99 L 461,792 Z m 0,0"
         id="path10"
         inkscape:connector-curvature="0" />
    </clipPath>
  </defs>
  <g
     id="surface1"
     transform="translate(0,-618.85156)">
    <g
       clip-path="url(#clip1)"
       id="g13"
       style="clip-rule:nonzero">
      <path
         style="fill:#211e1e;fill-opacity:1;fill-rule:nonzero;stroke:none"
         d="m 0.09375,791.72266 c 0,0 -6.746094,-94.85157 94.1875,-162.47266 3.101562,-2.07422 13.38281,-6.94531 19.28125,-7.85156 14.02344,-2.15235 40.04297,-4.90625 55.89844,1.04687 0,0 -84.144534,15.95703 -125.035159,75.22266 0,0 -34.050781,45.1289 -44.332031,94.05469"
         id="path15"
         inkscape:connector-curvature="0" />
    </g>
    <path
       style="fill:#d72123;fill-opacity:1;fill-rule:nonzero;stroke:none"
       d="m 43.21875,718.60547 c 0,0 37.566406,-73.5 150.78516,-89.92969 0,0 17.55078,-4.36719 53.7539,18.75 0,0 -124.48437,-11.68359 -204.53906,71.17969"
       id="path17"
       inkscape:connector-curvature="0" />
    <path
       style="fill:#f3eb02;fill-opacity:1;fill-rule:nonzero;stroke:none"
       d="m 83.234375,699.97266 c 0,0 77.035155,-45.07813 166.773435,-40.77735 0,0 16.24219,5.38281 32.11328,18.21875 0,0 -60.07422,-8.54687 -141.15625,17.35938 0,0 -17.44921,-3.52735 -57.730465,5.19922"
       id="path19"
       inkscape:connector-curvature="0" />
    <path
       style="fill:none;stroke:#211e1e;stroke-width:57.20000076;stroke-linecap:butt;stroke-linejoin:miter;stroke-miterlimit:4;stroke-opacity:1"
       d="m 1912.2656,488.04687 -317.2265,0 c -51.5625,6.21094 -74.6485,50.85938 -74.6485,50.85938 -69.375,129.49219 -87.8906,110.97656 -87.8906,110.97656 -36.9922,-18.51562 -46.2109,-60.11719 -46.2109,-60.11719 -4.6094,-41.60156 -27.7735,-50.85937 -27.7735,-50.85937 -18.4765,4.64844 -36.9922,-9.25781 -36.9922,-9.25781 C 1275.3125,469.57031 1233.6719,2.539062 1233.6719,2.539062 l -46.25,1220.703138 -55.4688,-684.33595 c 0,-60.11719 -41.6015,-51.44531 -41.6015,-51.44531 -27.7344,-0.54688 -46.25,42.1875 -46.25,42.1875 -41.6407,129.45312 -64.76566,110.97656 -64.76566,110.97656 -27.73438,4.60937 -69.29688,-106.32813 -69.29688,-106.32813 -27.77344,-55.50781 -78.63281,-46.25 -78.63281,-46.25 l -544.76563,0"
       transform="matrix(0.1,0,0,-0.1,0,792)"
       id="path21"
       inkscape:connector-curvature="0" />
    <path
       style="fill:#211e1e;fill-opacity:1;fill-rule:nonzero;stroke:none"
       d="m 227.57031,711.33203 -0.55078,0 -11.08203,44.27344 22.85156,0 z m 13.16016,-17.46875 29.35937,97.88281 -21.74218,0 -5.125,-19.47265 -31.16016,0 -5.26563,19.47265 -21.74218,0 28.66797,-97.88281 27.00781,0"
       id="path23"
       inkscape:connector-curvature="0" />
    <path
       style="fill:#211e1e;fill-opacity:1;fill-rule:nonzero;stroke:none"
       d="m 347.16797,693.86328 -30.1836,45.60938 34.67188,52.27343 -21.66016,0 -36.26172,-50.67578 29.49219,-47.20703 z m -72.03906,0 21.78906,0 0,97.88281 -21.78906,0 0,-97.88281"
       id="path25"
       inkscape:connector-curvature="0" />
    <path
       style="fill:#211e1e;fill-opacity:1;fill-rule:nonzero;stroke:none"
       d="m 422.29297,693.86328 0,17.86719 -24.51172,0 0,80.01562 -22.50391,0 0,-80.01562 -25.04687,0 0,-17.86719 72.0625,0"
       id="path27"
       inkscape:connector-curvature="0" />
    <g
       clip-path="url(#clip2)"
       id="g29"
       style="clip-rule:nonzero">
      <path
         style="fill:#211e1e;fill-opacity:1;fill-rule:nonzero;stroke:none"
         d="m 461.70312,693.86328 22.85157,0 28.03906,45.73828 c 1.1875,2 2.67187,4.66797 3.70703,6.66797 0.44922,0.80078 1.92969,4.40234 2.37891,5.07031 l 0.74218,0 -0.59375,-9.87109 c -0.44921,-6.66797 -0.44921,-7.46484 -0.44921,-11.19922 l 0,-36.40625 21.96093,0 0,97.88281 -19.58593,0 -28.92969,-47.47656 c -2.375,-3.86719 -2.52344,-4.26562 -8.16016,-16.13281 l -0.74219,0 c 0.14844,2.79687 0.74219,15.20312 0.74219,17.73437 l 0,45.875 -21.96094,0 0,-97.88281"
         id="path31"
         inkscape:connector-curvature="0" />
    </g>
    <path
       style="fill:#211e1e;fill-opacity:1;fill-rule:nonzero;stroke:none"
       d="m 428.20312,791.74609 24.03516,0 0,-97.88281 -24.03516,0 z m 0,0"
       id="path33"
       inkscape:connector-curvature="0" />
  </g>
</svg>
