<?xml version="1.0" encoding="UTF-8" standalone="no"?>
<svg
   xmlns:dc="http://purl.org/dc/elements/1.1/"
   xmlns:cc="http://creativecommons.org/ns#"
   xmlns:rdf="http://www.w3.org/1999/02/22-rdf-syntax-ns#"
   xmlns:svg="http://www.w3.org/2000/svg"
   xmlns="http://www.w3.org/2000/svg"
   xmlns:sodipodi="http://sodipodi.sourceforge.net/DTD/sodipodi-0.dtd"
   xmlns:inkscape="http://www.inkscape.org/namespaces/inkscape"
   width="124.21484pt"
   height="86.378906pt"
   viewBox="0 0 124.21484 86.378906"
   version="1.1"
   id="svg2"
   inkscape:version="0.91 r13725"
   sodipodi:docname="Gefördert_vom_BMBF.svg">
  <metadata
     id="metadata119">
    <rdf:RDF>
      <cc:Work
         rdf:about="">
        <dc:format>image/svg+xml</dc:format>
        <dc:type
           rdf:resource="http://purl.org/dc/dcmitype/StillImage" />
        <dc:title></dc:title>
      </cc:Work>
    </rdf:RDF>
  </metadata>
  <defs
     id="defs117" />
  <sodipodi:namedview
     pagecolor="#ffffff"
     bordercolor="#666666"
     borderopacity="1"
     objecttolerance="10"
     gridtolerance="10"
     guidetolerance="10"
     inkscape:pageopacity="0"
     inkscape:pageshadow="2"
     inkscape:window-width="640"
     inkscape:window-height="480"
     id="namedview115"
     showgrid="false"
     showborder="false"
     fit-margin-top="0"
     fit-margin-left="0"
     fit-margin-right="0"
     fit-margin-bottom="0"
     inkscape:zoom="0.23838384"
     inkscape:cx="95.55664"
     inkscape:cy="6.25"
     inkscape:window-x="0"
     inkscape:window-y="0"
     inkscape:window-maximized="0"
     inkscape:current-layer="svg2" />
  <g
     id="surface1"
     transform="translate(-229.55469,-314.62109)">
    <path
       style="fill:#211e1e;fill-opacity:1;fill-rule:nonzero;stroke:none"
       d="m 272.53516,371.09766 c 0,0.9375 -0.61719,1.30859 -1.10938,1.30859 -0.65234,0 -0.96484,-0.46094 -0.96484,-1.14063 l 0,-3.92187 -0.91797,0 0,4.3125 c 0,0.96094 0.53515,1.45312 1.52344,1.45312 0.59375,0 1.1289,-0.27734 1.43359,-0.79296 l 0.0352,0 0,0.68359 0.97265,0 c -0.0351,-0.39453 -0.0547,-0.78516 -0.0547,-1.17578 l 0,-4.48047 -0.91796,0 0,3.75391"
       id="path5"
       inkscape:connector-curvature="0" />
    <path
       style="fill:#211e1e;fill-opacity:1;fill-rule:nonzero;stroke:none"
       d="m 279.09766,373 0,-3.92188 c 0,-1.11718 -0.30079,-1.84765 -1.51172,-1.84765 -0.73047,0 -1.15625,0.20312 -1.51172,0.83984 l -0.0469,0 0,-0.72656 -0.97265,0 c 0.0351,0.39062 0.0547,0.78125 0.0547,1.17578 l 0,4.48047 0.91797,0 0,-3.35156 c 0,-0.76953 0.14844,-1.66797 1.15625,-1.66797 0.78125,0 0.9961,0.49609 0.9961,1.09765 l 0,3.92188 0.91797,0"
       id="path7"
       inkscape:connector-curvature="0" />
    <path
       style="fill:#211e1e;fill-opacity:1;fill-rule:nonzero;stroke:none"
       d="m 283.60937,369.94141 c 0,1.14062 0,2.41796 -1.03125,2.41796 -1.15234,0 -1.15234,-1.23046 -1.15234,-2.08203 0,-1.51172 0.13672,-2.29687 1.12109,-2.29687 1.01954,0 1.0625,1.21094 1.0625,1.96094 z m 0,-2.02735 -0.0312,0 c -0.3164,-0.44531 -0.70703,-0.68359 -1.24218,-0.68359 -1.82813,0 -1.8711,1.625 -1.8711,3.03515 0,2.48829 0.91797,2.84375 1.82422,2.84375 0.59375,0 0.98438,-0.2539 1.30078,-0.78515 l 0.0195,0 0,0.67578 0.91797,0 0,-8.08594 -0.91797,0 0,3"
       id="path9"
       inkscape:connector-curvature="0" />
    <path
       style="fill:#211e1e;fill-opacity:1;fill-rule:nonzero;stroke:none"
       d="m 289.42187,373 0,-3.69531 2.82422,0 0,-0.89844 -2.82422,0 0,-2.59766 2.98047,0 0,-0.89453 -4.01172,0 0,8.08594 1.03125,0"
       id="path11"
       inkscape:connector-curvature="0" />
    <path
       style="fill:#211e1e;fill-opacity:1;fill-rule:nonzero;stroke:none"
       d="m 295.22266,372.35937 c -0.95313,0 -1.1875,-0.66015 -1.1875,-2.49609 0,-1.54687 0.48046,-1.88281 1.1875,-1.88281 0.70312,0 1.1875,0.33594 1.1875,1.88281 0,1.83594 -0.23438,2.49609 -1.1875,2.49609 z m 0,0.75 c 1.19921,0 2.14843,-0.35546 2.14843,-2.85546 0,-1.65625 -0.1875,-3.02344 -2.14843,-3.02344 -1.96094,0 -2.15235,1.36719 -2.15235,3.02344 0,2.5 0.95313,2.85546 2.15235,2.85546"
       id="path13"
       inkscape:connector-curvature="0" />
    <path
       style="fill:#211e1e;fill-opacity:1;fill-rule:nonzero;stroke:none"
       d="m 299.72656,367.34375 -0.91797,0 0,5.65625 0.91797,0 0,-3.33984 c 0,-0.76172 0.25391,-1.53516 1.27344,-1.53516 0.16797,0 0.32422,0.0352 0.49219,0.0586 l 0,-0.95312 c -0.89453,0 -1.36328,0.10156 -1.7461,0.96484 l -0.0195,0 0,-0.85156"
       id="path15"
       inkscape:connector-curvature="0" />
    <path
       style="fill:#211e1e;fill-opacity:1;fill-rule:nonzero;stroke:none"
       d="m 306.07812,371.38672 c 0,-1.72656 -2.82031,-1.70313 -2.82031,-2.69922 0,-0.49219 0.38281,-0.76172 0.875,-0.76172 0.58203,0 0.89453,0.3125 0.88281,0.90625 l 1.01954,0 c 0.0781,-1.11719 -0.78125,-1.60156 -1.79297,-1.60156 -1.58985,0 -1.94922,0.95312 -1.94922,1.54687 0,1.69141 2.82422,1.71094 2.82422,2.71875 0,0.58594 -0.42578,0.86328 -0.97657,0.86328 -0.92578,0 -0.9414,-0.76171 -0.9414,-1.08593 l -1.03906,0 c -0.0352,1.30078 0.73046,1.83593 1.94921,1.83593 1.1211,0 1.96875,-0.48046 1.96875,-1.72265"
       id="path17"
       inkscape:connector-curvature="0" />
    <path
       style="fill:#211e1e;fill-opacity:1;fill-rule:nonzero;stroke:none"
       d="m 311.14844,369.15625 c 0.0586,-1.26563 -0.60157,-1.92578 -1.73438,-1.92578 -1.96094,0 -2.14844,1.36719 -2.14844,3.02344 0,2.5 0.95313,2.85546 2.14844,2.85546 0.62891,0 1.81641,-0.40234 1.78125,-1.99218 l -0.96484,0 c 0.0351,1.01953 -0.60156,1.24218 -0.81641,1.24218 -0.94922,0 -1.18359,-0.66015 -1.18359,-2.49609 0,-1.54687 0.48047,-1.88281 1.18359,-1.88281 0.34766,0 0.8086,0.25 0.78516,1.17578 l 0.94922,0"
       id="path19"
       inkscape:connector-curvature="0" />
    <path
       style="fill:#211e1e;fill-opacity:1;fill-rule:nonzero;stroke:none"
       d="m 316.66016,373 0,-4.01172 c 0,-1.27344 -0.53907,-1.75781 -1.5,-1.75781 -0.73829,0 -1.16407,0.17969 -1.53125,0.83984 l -0.0469,0 0,-3.15625 -0.91797,0 0,8.08594 0.91797,0 0,-3.32813 c 0,-0.94921 0.23438,-1.6914 1.15234,-1.6914 0.78516,0 1.00782,0.49609 1.00782,1.1875 l 0,3.83203 0.91797,0"
       id="path21"
       inkscape:connector-curvature="0" />
    <path
       style="fill:#211e1e;fill-opacity:1;fill-rule:nonzero;stroke:none"
       d="m 321.30078,371.09766 c 0,0.9375 -0.61719,1.30859 -1.11328,1.30859 -0.64844,0 -0.96094,-0.46094 -0.96094,-1.14063 l 0,-3.92187 -0.91797,0 0,4.3125 c 0,0.96094 0.53907,1.45312 1.52344,1.45312 0.59375,0 1.13281,-0.27734 1.43359,-0.79296 l 0.0352,0 0,0.68359 0.97266,0 c -0.0352,-0.39453 -0.0547,-0.78516 -0.0547,-1.17578 l 0,-4.48047 -0.91797,0 0,3.75391"
       id="path23"
       inkscape:connector-curvature="0" />
    <path
       style="fill:#211e1e;fill-opacity:1;fill-rule:nonzero;stroke:none"
       d="m 327.85937,373 0,-3.92188 c 0,-1.11718 -0.30078,-1.84765 -1.50781,-1.84765 -0.73047,0 -1.15625,0.20312 -1.51172,0.83984 l -0.0469,0 0,-0.72656 -0.97266,0 c 0.0312,0.39062 0.0547,0.78125 0.0547,1.17578 l 0,4.48047 0.91797,0 0,-3.35156 c 0,-0.76953 0.14453,-1.66797 1.15234,-1.66797 0.78516,0 0.9961,0.49609 0.9961,1.09765 l 0,3.92188 0.91796,0"
       id="path25"
       inkscape:connector-curvature="0" />
    <path
       style="fill:#211e1e;fill-opacity:1;fill-rule:nonzero;stroke:none"
       d="m 332.39844,370.14453 c 0,0.78516 0.0351,2.09375 -1.07422,2.09375 -0.6836,0 -1.09766,-0.42578 -1.09766,-2.24219 0,-0.75 0.0352,-2.0039 1.07422,-2.0039 1.15234,0 1.09766,1.3125 1.09766,2.15234 z m -0.0195,-2.10937 -0.0234,0 c -0.25781,-0.54688 -0.72656,-0.80469 -1.32422,-0.80469 -0.45703,0 -1.76563,0.16797 -1.76563,2.76562 0,1.6836 0.29688,3.00391 1.83594,3.00391 0.49219,0 1.00391,-0.25781 1.24219,-0.70703 l 0.0352,0 0,1.17578 c 0,0.58203 -0.35157,0.97656 -0.98829,0.97656 -0.5039,0 -0.85156,-0.29297 -0.86328,-0.82031 l -1.03125,0 c -0.0742,1.04297 0.77344,1.51172 1.71485,1.51172 1.24218,0 2.08593,-0.30078 2.08593,-1.56641 l 0,-6.22656 -0.91796,0 0,0.69141"
       id="path27"
       inkscape:connector-curvature="0" />
    <path
       style="fill:#211e1e;fill-opacity:1;fill-rule:nonzero;stroke:none"
       d="m 269.14062,355.34375 0,0.69141 0.8711,0 0,4.96484 0.92187,0 0,-4.96484 1.14063,0 0,-0.69141 -1.14063,0 0,-0.96484 c 0,-0.45704 0.16407,-0.8711 1.14063,-0.8086 l 0,-0.65625 c -0.13672,-0.0234 -0.2461,-0.0351 -0.4375,-0.0351 -0.81641,0 -1.625,0.22265 -1.625,1.36718 l 0,1.09766 -0.8711,0"
       id="path29"
       inkscape:connector-curvature="0" />
    <path
       style="fill:#211e1e;fill-opacity:1;fill-rule:nonzero;stroke:none"
       d="m 274.48828,353.22656 -1.05078,0 0,1.16406 1.05078,0 z m 1.97266,0 -1.05469,0 0,1.16406 1.05469,0 z m -0.48047,5.8711 c 0,0.9375 -0.61719,1.30859 -1.10938,1.30859 -0.64843,0 -0.96484,-0.46094 -0.96484,-1.14063 l 0,-3.92187 -0.91797,0 0,4.3125 c 0,0.96094 0.53906,1.45312 1.52344,1.45312 0.59375,0 1.13281,-0.27734 1.43359,-0.79296 l 0.0352,0 0,0.68359 0.97265,0 c -0.0312,-0.39453 -0.0547,-0.78516 -0.0547,-1.17578 l 0,-4.48047 -0.91797,0 0,3.75391"
       id="path31"
       inkscape:connector-curvature="0" />
    <path
       style="fill:#211e1e;fill-opacity:1;fill-rule:nonzero;stroke:none"
       d="m 279.50781,355.34375 -0.91797,0 0,5.65625 0.91797,0 0,-3.33984 c 0,-0.76172 0.25781,-1.53516 1.27735,-1.53516 0.16796,0 0.32421,0.0352 0.49218,0.0586 l 0,-0.95312 c -0.89453,0 -1.36718,0.10156 -1.74609,0.96484 l -0.0234,0 0,-0.85156"
       id="path33"
       inkscape:connector-curvature="0" />
    <path
       style="fill:#211e1e;fill-opacity:1;fill-rule:nonzero;stroke:none"
       d="m 285.10156,357.21484 1.09766,0 c 1.05469,0 1.84765,0.22266 1.84765,1.51172 0,0.58985 -0.39062,1.37891 -1.48828,1.37891 l -1.45703,0 z m 0,-3.40625 1.45703,0 c 0.86328,0 1.24219,0.54688 1.24219,1.21875 0,0.78516 -0.39453,1.28125 -1.19922,1.28907 l -1.5,0 z M 286.67187,361 c 0.91407,0 2.42579,-0.20313 2.42579,-2.27344 0,-1.10937 -0.50391,-1.80469 -1.65625,-1.9414 l 0,-0.0547 c 1.04296,-0.23438 1.38671,-0.90625 1.38671,-1.91406 0,-0.15625 -0.043,-0.63672 -0.32421,-1.07813 -0.30079,-0.44531 -0.6836,-0.82422 -1.80079,-0.82422 l -2.63281,0 0,8.08594 2.60156,0"
       id="path35"
       inkscape:connector-curvature="0" />
    <path
       style="fill:#211e1e;fill-opacity:1;fill-rule:nonzero;stroke:none"
       d="m 291.49219,355.34375 -0.92188,0 0,5.65625 0.92188,0 z m -0.97657,-1.44531 1.03125,0 0,-0.98438 -1.03125,0 0,0.98438"
       id="path37"
       inkscape:connector-curvature="0" />
    <path
       style="fill:#211e1e;fill-opacity:1;fill-rule:nonzero;stroke:none"
       d="m 294.08984,352.91406 -0.91797,0 0,8.08594 0.91797,0 0,-8.08594"
       id="path39"
       inkscape:connector-curvature="0" />
    <path
       style="fill:#211e1e;fill-opacity:1;fill-rule:nonzero;stroke:none"
       d="m 298.66797,357.94141 c 0,1.14062 0,2.41796 -1.03125,2.41796 -1.15235,0 -1.15235,-1.23046 -1.15235,-2.08203 0,-1.51172 0.13282,-2.29687 1.1211,-2.29687 1.01562,0 1.0625,1.21094 1.0625,1.96094 z m 0,-2.02735 -0.0352,0 c -0.3125,-0.44531 -0.70312,-0.68359 -1.24219,-0.68359 -1.82421,0 -1.87109,1.625 -1.87109,3.03515 0,2.48829 0.91797,2.84375 1.82813,2.84375 0.59375,0 0.98437,-0.2539 1.29687,-0.78515 l 0.0234,0 0,0.67578 0.91797,0 0,-8.08594 -0.91797,0 0,3"
       id="path41"
       inkscape:connector-curvature="0" />
    <path
       style="fill:#211e1e;fill-opacity:1;fill-rule:nonzero;stroke:none"
       d="m 304.30469,359.09766 c 0,0.9375 -0.61719,1.30859 -1.11328,1.30859 -0.64844,0 -0.96094,-0.46094 -0.96094,-1.14063 l 0,-3.92187 -0.91797,0 0,4.3125 c 0,0.96094 0.53516,1.45312 1.52344,1.45312 0.59375,0 1.13281,-0.27734 1.43359,-0.79296 l 0.0352,0 0,0.68359 0.96875,0 c -0.0312,-0.39453 -0.0547,-0.78516 -0.0547,-1.17578 l 0,-4.48047 -0.91406,0 0,3.75391"
       id="path43"
       inkscape:connector-curvature="0" />
    <path
       style="fill:#211e1e;fill-opacity:1;fill-rule:nonzero;stroke:none"
       d="m 310.86328,361 0,-3.92188 c 0,-1.11718 -0.30078,-1.84765 -1.50781,-1.84765 -0.73047,0 -1.15625,0.20312 -1.51172,0.83984 l -0.0469,0 0,-0.72656 -0.97656,0 c 0.0352,0.39062 0.0586,0.78125 0.0586,1.17578 l 0,4.48047 0.91796,0 0,-3.35156 c 0,-0.76953 0.14454,-1.66797 1.15235,-1.66797 0.78515,0 0.99609,0.49609 0.99609,1.09765 l 0,3.92188 0.91797,0"
       id="path45"
       inkscape:connector-curvature="0" />
    <path
       style="fill:#211e1e;fill-opacity:1;fill-rule:nonzero;stroke:none"
       d="m 315.40234,358.14453 c 0,0.78516 0.0352,2.09375 -1.07812,2.09375 -0.67969,0 -1.09375,-0.42578 -1.09375,-2.24219 0,-0.75 0.0312,-2.0039 1.07422,-2.0039 1.15234,0 1.09765,1.3125 1.09765,2.15234 z m -0.0234,-2.10937 -0.0234,0 c -0.25391,-0.54688 -0.72656,-0.80469 -1.32031,-0.80469 -0.46094,0 -1.76954,0.16797 -1.76954,2.76562 0,1.6836 0.30079,3.00391 1.83594,3.00391 0.49219,0 1.00781,-0.25781 1.2461,-0.70703 l 0.0312,0 0,1.17578 c 0,0.58203 -0.34766,0.97656 -0.98438,0.97656 -0.50391,0 -0.85547,-0.29297 -0.86328,-0.82031 l -1.03125,0 c -0.0781,1.04297 0.77344,1.51172 1.71484,1.51172 1.24219,0 2.08203,-0.30078 2.08203,-1.56641 l 0,-6.22656 -0.91796,0 0,0.69141"
       id="path47"
       inkscape:connector-curvature="0" />
    <path
       style="fill:#211e1e;fill-opacity:1;fill-rule:nonzero;stroke:none"
       d="m 270.60937,345.21484 1.09766,0 c 1.05078,0 1.84766,0.22266 1.84766,1.51172 0,0.58985 -0.39453,1.37891 -1.48828,1.37891 l -1.45704,0 z m 0,-3.40625 1.45704,0 c 0.85937,0 1.24218,0.54688 1.24218,1.21875 0,0.78516 -0.39453,1.28125 -1.19922,1.28907 l -1.5,0 z M 272.17578,349 c 0.91797,0 2.42969,-0.20313 2.42969,-2.27344 0,-1.10937 -0.50391,-1.80469 -1.65625,-1.9414 l 0,-0.0547 c 1.04297,-0.23438 1.39062,-0.90625 1.39062,-1.91406 0,-0.15625 -0.0469,-0.63672 -0.32812,-1.07813 -0.30078,-0.44531 -0.6836,-0.82422 -1.80078,-0.82422 l -2.63282,0 0,8.08594 2.59766,0"
       id="path49"
       inkscape:connector-curvature="0" />
    <path
       style="fill:#211e1e;fill-opacity:1;fill-rule:nonzero;stroke:none"
       d="m 278.9375,347.09766 c 0,0.9375 -0.61719,1.30859 -1.10938,1.30859 -0.64843,0 -0.96484,-0.46094 -0.96484,-1.14063 l 0,-3.92187 -0.91797,0 0,4.3125 c 0,0.96094 0.53906,1.45312 1.52344,1.45312 0.59375,0 1.13281,-0.27734 1.43359,-0.79296 l 0.0352,0 0,0.68359 0.97266,0 c -0.0312,-0.39453 -0.0547,-0.78516 -0.0547,-1.17578 l 0,-4.48047 -0.91797,0 0,3.75391"
       id="path51"
       inkscape:connector-curvature="0" />
    <path
       style="fill:#211e1e;fill-opacity:1;fill-rule:nonzero;stroke:none"
       d="m 285.5,349 0,-3.92188 c 0,-1.11718 -0.30469,-1.84765 -1.51172,-1.84765 -0.72656,0 -1.15234,0.20312 -1.51172,0.83984 l -0.0469,0 0,-0.72656 -0.97266,0 c 0.0352,0.39062 0.0547,0.78125 0.0547,1.17578 l 0,4.48047 0.91797,0 0,-3.35156 c 0,-0.76953 0.14453,-1.66797 1.15625,-1.66797 0.78125,0 0.99609,0.49609 0.99609,1.09765 l 0,3.92188 0.91797,0"
       id="path53"
       inkscape:connector-curvature="0" />
    <path
       style="fill:#211e1e;fill-opacity:1;fill-rule:nonzero;stroke:none"
       d="m 290.01172,345.94141 c 0,1.14062 0,2.41796 -1.02735,2.41796 -1.15625,0 -1.15625,-1.23046 -1.15625,-2.08203 0,-1.51172 0.13672,-2.29687 1.1211,-2.29687 1.01953,0 1.0625,1.21094 1.0625,1.96094 z m 0,-2.02735 -0.0312,0 c -0.3125,-0.44531 -0.70703,-0.68359 -1.24219,-0.68359 -1.82812,0 -1.87109,1.625 -1.87109,3.03515 0,2.48829 0.91797,2.84375 1.82422,2.84375 0.59375,0 0.98828,-0.2539 1.30078,-0.78515 l 0.0195,0 0,0.67578 0.92187,0 0,-8.08594 -0.92187,0 0,3"
       id="path55"
       inkscape:connector-curvature="0" />
    <path
       style="fill:#211e1e;fill-opacity:1;fill-rule:nonzero;stroke:none"
       d="m 293.30859,345.77344 c 0.008,-1.56641 0.49219,-1.84766 1.07422,-1.84766 0.67188,0 1.13281,0.19922 1.13281,1.84766 z m 3.17969,0.69531 0,-0.48438 c 0,-1.86718 -0.40234,-2.7539 -2.01562,-2.7539 -1.96094,0 -2.15235,1.36719 -2.15235,3.02344 0,2.5 0.95313,2.85546 2.15235,2.85546 1.1875,0 1.96093,-0.57031 1.96875,-1.82421 l -1.00782,0 c -0.0312,0.57031 -0.35937,1.07421 -0.98437,1.07421 -0.71875,0 -1.14063,-0.3125 -1.14063,-1.89062 l 3.17969,0"
       id="path57"
       inkscape:connector-curvature="0" />
    <path
       style="fill:#211e1e;fill-opacity:1;fill-rule:nonzero;stroke:none"
       d="m 301.55078,347.38672 c 0,-1.72656 -2.82031,-1.70313 -2.82031,-2.69922 0,-0.49219 0.3789,-0.76172 0.87109,-0.76172 0.58203,0 0.89453,0.3125 0.88281,0.90625 l 1.02344,0 c 0.0781,-1.11719 -0.78515,-1.60156 -1.79297,-1.60156 -1.59375,0 -1.94922,0.95312 -1.94922,1.54687 0,1.69141 2.82422,1.71094 2.82422,2.71875 0,0.58594 -0.42968,0.86328 -0.97656,0.86328 -0.92969,0 -0.94141,-0.76171 -0.94141,-1.08593 l -1.04296,0 c -0.0312,1.30078 0.72656,1.83593 1.94921,1.83593 1.1211,0 1.97266,-0.48046 1.97266,-1.72265"
       id="path59"
       inkscape:connector-curvature="0" />
    <path
       style="fill:#211e1e;fill-opacity:1;fill-rule:nonzero;stroke:none"
       d="m 306.67969,349 0,-3.80859 c 0,-0.21094 0.043,-0.77344 0.3125,-0.9961 0.24218,-0.20312 0.34765,-0.21484 0.69531,-0.21484 0.73828,0 0.89453,0.52734 0.89453,1.09765 l 0,3.92188 0.91797,0 0,-4.30078 c 0,-1.33594 -0.95313,-1.46875 -1.54688,-1.46875 -0.51562,0 -1.02734,0.125 -1.34375,0.73047 -0.21484,-0.51563 -0.80468,-0.73047 -1.32031,-0.73047 -0.66015,0 -1.14453,0.21484 -1.41015,0.82031 l -0.0234,0 0,-0.70703 -0.97266,0 c 0.0312,0.39062 0.0547,0.78125 0.0547,1.17578 l 0,4.48047 0.91797,0 0,-3.80859 c 0,-0.21094 0.043,-0.55079 0.21094,-0.83204 0.13671,-0.21093 0.51953,-0.3789 0.79687,-0.3789 0.74219,0 0.89453,0.52734 0.89453,1.09765 l 0,3.92188 0.92188,0"
       id="path61"
       inkscape:connector-curvature="0" />
    <path
       style="fill:#211e1e;fill-opacity:1;fill-rule:nonzero;stroke:none"
       d="m 312.03906,343.34375 -0.91797,0 0,5.65625 0.91797,0 z m -0.97265,-1.44531 1.03125,0 0,-0.98438 -1.03125,0 0,0.98438"
       id="path63"
       inkscape:connector-curvature="0" />
    <path
       style="fill:#211e1e;fill-opacity:1;fill-rule:nonzero;stroke:none"
       d="m 317.69531,349 0,-3.92188 c 0,-1.11718 -0.30078,-1.84765 -1.51172,-1.84765 -0.73047,0 -1.15234,0.20312 -1.51172,0.83984 l -0.043,0 0,-0.72656 -0.97657,0 c 0.0352,0.39062 0.0547,0.78125 0.0547,1.17578 l 0,4.48047 0.92188,0 0,-3.35156 c 0,-0.76953 0.14453,-1.66797 1.15234,-1.66797 0.78125,0 0.99609,0.49609 0.99609,1.09765 l 0,3.92188 0.91797,0"
       id="path65"
       inkscape:connector-curvature="0" />
    <path
       style="fill:#211e1e;fill-opacity:1;fill-rule:nonzero;stroke:none"
       d="m 320.23828,343.34375 -0.91797,0 0,5.65625 0.91797,0 z m -0.97266,-1.44531 1.02735,0 0,-0.98438 -1.02735,0 0,0.98438"
       id="path67"
       inkscape:connector-curvature="0" />
    <path
       style="fill:#211e1e;fill-opacity:1;fill-rule:nonzero;stroke:none"
       d="m 325.45703,347.38672 c 0,-1.72656 -2.82422,-1.70313 -2.82422,-2.69922 0,-0.49219 0.38281,-0.76172 0.875,-0.76172 0.58203,0 0.89453,0.3125 0.88281,0.90625 l 1.01954,0 c 0.0781,-1.11719 -0.78125,-1.60156 -1.79297,-1.60156 -1.58985,0 -1.94532,0.95312 -1.94532,1.54687 0,1.69141 2.82032,1.71094 2.82032,2.71875 0,0.58594 -0.42578,0.86328 -0.97266,0.86328 -0.92969,0 -0.94141,-0.76171 -0.94141,-1.08593 l -1.04296,0 c -0.0312,1.30078 0.73046,1.83593 1.94921,1.83593 1.1211,0 1.97266,-0.48046 1.97266,-1.72265"
       id="path69"
       inkscape:connector-curvature="0" />
    <path
       style="fill:#211e1e;fill-opacity:1;fill-rule:nonzero;stroke:none"
       d="m 326.07031,343.34375 0,0.69141 0.92578,0 0,4.02343 c 0,0.64844 0.39453,1.00782 1.26953,1.00782 0.30079,0 0.60157,-0.0664 0.90625,-0.0899 l 0,-0.70703 c -0.19921,0.0234 -0.34765,0.0469 -0.41406,0.0469 -0.83984,0 -0.83984,-0.46094 -0.83984,-0.82032 l 0,-3.46093 1.23047,0 0,-0.69141 -1.23047,0 0,-1.5 -0.92188,0.41406 0,1.08594 -0.92578,0"
       id="path71"
       inkscape:connector-curvature="0" />
    <path
       style="fill:#211e1e;fill-opacity:1;fill-rule:nonzero;stroke:none"
       d="m 330.90234,345.77344 c 0.0117,-1.56641 0.49219,-1.84766 1.07813,-1.84766 0.67187,0 1.1289,0.19922 1.1289,1.84766 z m 3.1836,0.69531 0,-0.48438 c 0,-1.86718 -0.40235,-2.7539 -2.01563,-2.7539 -1.96094,0 -2.14844,1.36719 -2.14844,3.02344 0,2.5 0.94922,2.85546 2.14844,2.85546 1.1875,0 1.95703,-0.57031 1.96875,-1.82421 l -1.00781,0 c -0.0352,0.57031 -0.35547,1.07421 -0.98047,1.07421 -0.72266,0 -1.14844,-0.3125 -1.14844,-1.89062 l 3.1836,0"
       id="path73"
       inkscape:connector-curvature="0" />
    <path
       style="fill:#211e1e;fill-opacity:1;fill-rule:nonzero;stroke:none"
       d="m 336.35937,343.34375 -0.91796,0 0,5.65625 0.91796,0 0,-3.33984 c 0,-0.76172 0.25782,-1.53516 1.27735,-1.53516 0.16797,0 0.32422,0.0352 0.49219,0.0586 l 0,-0.95312 c -0.89844,0 -1.36329,0.10156 -1.7461,0.96484 l -0.0234,0 0,-0.85156"
       id="path75"
       inkscape:connector-curvature="0" />
    <path
       style="fill:#211e1e;fill-opacity:1;fill-rule:nonzero;stroke:none"
       d="m 340.02734,343.34375 -0.92187,0 0,5.65625 0.92187,0 z m -0.97265,-1.44531 1.03125,0 0,-0.98438 -1.03125,0 0,0.98438"
       id="path77"
       inkscape:connector-curvature="0" />
    <path
       style="fill:#211e1e;fill-opacity:1;fill-rule:nonzero;stroke:none"
       d="m 344.64062,347.09766 c 0,0.9375 -0.61718,1.30859 -1.10937,1.30859 -0.64844,0 -0.96484,-0.46094 -0.96484,-1.14063 l 0,-3.92187 -0.91797,0 0,4.3125 c 0,0.96094 0.53906,1.45312 1.52734,1.45312 0.59375,0 1.12891,-0.27734 1.42969,-0.79296 l 0.0351,0 0,0.68359 0.97266,0 c -0.0352,-0.39453 -0.0547,-0.78516 -0.0547,-1.17578 l 0,-4.48047 -0.91797,0 0,3.75391"
       id="path79"
       inkscape:connector-curvature="0" />
    <path
       style="fill:#211e1e;fill-opacity:1;fill-rule:nonzero;stroke:none"
       d="m 350.94531,349 0,-3.80859 c 0,-0.21094 0.043,-0.77344 0.31641,-0.9961 0.24609,-0.20312 0.34375,-0.21484 0.6914,-0.21484 0.73829,0 0.89844,0.52734 0.89844,1.09765 l 0,3.92188 0.91797,0 0,-4.30078 c 0,-1.33594 -0.95312,-1.46875 -1.54687,-1.46875 -0.51563,0 -1.03125,0.125 -1.34375,0.73047 -0.21485,-0.51563 -0.8086,-0.73047 -1.32032,-0.73047 -0.66406,0 -1.14453,0.21484 -1.41406,0.82031 l -0.0234,0 0,-0.70703 -0.97265,0 c 0.0351,0.39062 0.0547,0.78125 0.0547,1.17578 l 0,4.48047 0.91797,0 0,-3.80859 c 0,-0.21094 0.0469,-0.55079 0.21485,-0.83204 0.13672,-0.21093 0.51562,-0.3789 0.79687,-0.3789 0.73438,0 0.89453,0.52734 0.89453,1.09765 l 0,3.92188 0.91797,0"
       id="path81"
       inkscape:connector-curvature="0" />
    <path
       style="fill:#f0cf02;fill-opacity:1;fill-rule:nonzero;stroke:none"
       d="m 258.94922,381 3.54297,0 0,20 -3.54297,0 0,-20"
       id="path83"
       inkscape:connector-curvature="0" />
    <path
       style="fill:#eb1923;fill-opacity:1;fill-rule:nonzero;stroke:none"
       d="m 258.94922,360.92969 3.54297,0 0,20.07031 -3.54297,0 0,-20.07031"
       id="path85"
       inkscape:connector-curvature="0" />
    <path
       style="fill:#211e1e;fill-opacity:1;fill-rule:nonzero;stroke:none"
       d="m 258.94922,341 3.54297,0 0,20 -3.54297,0 0,-20"
       id="path87"
       inkscape:connector-curvature="0" />
    <path
       style="fill:#211e1e;fill-opacity:1;fill-rule:nonzero;stroke:none"
       d="m 238.71484,361.00391 z m 0.004,0.008 z m -0.004,0.004 z m 0,-0.0156 z m 9.17969,-16.61719 c 0,-1.14062 -0.82812,-2.04297 -1.11719,-2.29687 l -0.21093,0.0469 c 0.30859,0.37891 0.85546,1.01172 0.85546,1.85156 0,1.65625 -1.74609,3.08985 -3.73828,3.11719 0.0156,0.16797 0.0117,0.32031 0.0117,0.44922 0,0.23438 -0.0117,0.46875 -0.043,0.69141 2.26172,-0.043 4.24219,-1.87891 4.24219,-3.85938 z m -3.11719,13.67969 c -0.96484,0 -1.17578,-0.0977 -1.42968,-0.0977 -0.16407,0 -0.32032,0.0156 -0.32032,0.2461 0,0.16015 0.1836,0.39453 0.34375,0.51953 0.23047,-0.22656 0.53907,-0.27735 1.04297,-0.27735 0.23438,0 0.5586,0.0469 0.69922,0.0664 -0.0195,0.13672 -0.0469,0.32031 -0.0469,0.57031 0,0.13282 0.004,0.28907 0.004,0.45313 0,0.57031 -0.0859,0.87109 -0.28125,1.10156 0.0391,0.0273 0.15625,0.0469 0.22266,0.0469 0.37109,0 0.46484,-0.1875 0.46484,-1.14454 0,-0.29296 0.0234,-0.5625 0.0234,-0.6289 0.51953,0.39453 1.04687,1.09765 1.04687,1.60547 0.16797,-0.0859 0.36329,-0.33985 0.36329,-0.53516 0,-0.34375 -0.57813,-0.85937 -1.19141,-1.48047 0.0859,-0.0234 0.3125,-0.0859 0.5,-0.0859 0.48437,0 0.875,0.0781 1.10156,0.34766 0.0898,-0.0977 0.16406,-0.39453 0.16406,-0.55859 0,-0.28907 -0.16796,-0.28125 -0.28906,-0.28125 -0.51172,0 -1.14844,0.082 -1.60156,0.15625 -0.16406,-0.22266 -1.21875,-1.64453 -1.49219,-2.40235 -0.0781,-0.0312 -0.13672,-0.0508 -0.26562,-0.0508 -0.25391,0 -0.32032,0.17578 -0.38672,0.41797 0.58203,0.70313 1.14062,1.46875 1.32812,2.01172 z m -5.76562,-2.01172 c -0.0625,-0.24219 -0.12891,-0.41797 -0.38281,-0.41797 -0.12891,0 -0.19141,0.0195 -0.26563,0.0508 -0.27734,0.75782 -1.32812,2.17969 -1.49609,2.40235 -0.45313,-0.0742 -1.08594,-0.15625 -1.60157,-0.15625 -0.12109,0 -0.28515,-0.008 -0.28515,0.28125 0,0.16406 0.0742,0.46093 0.16406,0.55859 0.22656,-0.26953 0.61719,-0.34766 1.09766,-0.34766 0.1914,0 0.41797,0.0625 0.5039,0.0859 -0.61718,0.6211 -1.19531,1.13672 -1.19531,1.48047 0,0.19531 0.19922,0.44922 0.37109,0.53516 0,-0.50782 0.52344,-1.21094 1.03907,-1.60547 0,0.0664 0.0234,0.33594 0.0234,0.6289 0,0.95704 0.0977,1.14454 0.46485,1.14454 0.0703,0 0.18359,-0.0195 0.22656,-0.0469 -0.19922,-0.23047 -0.28125,-0.53125 -0.28125,-1.10156 0,-0.16406 0.004,-0.32031 0.004,-0.45313 0,-0.25 -0.0273,-0.43359 -0.0469,-0.57031 0.14063,-0.0195 0.46094,-0.0664 0.69922,-0.0664 0.5,0 0.8125,0.0508 1.03906,0.27735 0.16407,-0.125 0.34375,-0.35938 0.34375,-0.51953 0,-0.23047 -0.15234,-0.2461 -0.3164,-0.2461 -0.25782,0 -0.46485,0.0977 -1.42969,0.0977 0.1875,-0.54297 0.74609,-1.30859 1.32422,-2.01172 z m -3.97266,-12.06641 c 0,-0.83984 0.55078,-1.47265 0.85938,-1.85156 l -0.21094,-0.0469 c -0.29297,0.2539 -1.12109,1.15625 -1.12109,2.29687 0,1.99219 2.00781,3.84375 4.29296,3.85938 -0.0234,-0.21485 -0.0391,-0.44532 -0.0391,-0.69141 0,-0.15625 0.008,-0.30469 0.0195,-0.44531 -2.01953,0 -3.80078,-1.45313 -3.80078,-3.1211 z m 6.13672,-1.53515 c 0.10156,-0.23828 0.24219,-0.52344 0.24219,-0.83594 0,-0.86328 -0.71485,-1.27734 -1.67578,-1.27734 -0.4961,0 -0.74219,0.16015 -0.74219,0.32031 0,0.16016 0.16016,0.51172 0.22656,0.62109 0.17578,-0.082 0.4961,-0.17187 0.6836,-0.17187 0.65625,0 1.14843,0.73828 1.26562,1.34375 z m 0.47266,-1.10547 c 0.5625,0.10937 0.9414,-0.60938 0.41015,-0.73438 0.0742,0.23438 -0.28515,0.40235 -0.28515,0.40235 0,0 -0.13672,-0.31641 0.0391,-0.4961 -0.32813,-0.16015 -0.41016,0.0352 -0.41406,0.23438 0.1289,0.17187 0.21093,0.37109 0.25,0.59375 z m 1.8164,4.91406 c 0.0898,0.004 0.17578,0.0117 0.26563,0.0117 1.57812,0 3.14453,-1.02344 3.14453,-2.33203 0,-0.69922 -0.3125,-1.1875 -0.69922,-1.72656 -0.23047,0.0351 -0.4375,0.0586 -0.60156,0.0586 -0.71485,0 -1.10156,-0.38281 -1.13281,-0.76172 0,-0.33984 0.27734,-0.59765 0.70703,-0.59765 0.66406,0 1.875,0.625 3.09375,0.625 -0.11719,0.0898 -0.31641,0.1875 -0.5586,0.27734 0.71485,0.64062 1.19532,1.50391 1.375,2.42969 l 1.8711,2.99218 c 0.3125,0.5 0.98047,1.48438 1.98047,2.25 -1.21094,0 -2.01563,0.0312 -3.03907,-1.58984 l -0.95703,-1.53516 c -0.0703,0.19922 -0.15625,0.39454 -0.26172,0.58204 l 1.91016,3.05468 c 0.31641,0.50391 0.97266,1.48047 1.97656,2.25 -1.21094,0 -2.01172,0.0274 -3.03515,-1.58984 l -1.64063,-2.62891 c -0.12109,0.12891 -0.25391,0.25782 -0.39062,0.38282 l 2.3164,3.70703 c 0.32031,0.50781 0.97656,1.47656 1.98047,2.25 -1.20703,0 -2.01172,0.0273 -3.03516,-1.59375 l -2.25781,-3.61328 c -0.14844,0.0976 -0.30078,0.1875 -0.45703,0.27343 l 2.75391,4.41016 c 0.32031,0.50781 0.97265,1.47656 1.98047,2.25 -1.20704,0 -2.01172,0.0273 -3.03516,-1.58984 l -2.83594,-4.54297 c -0.16797,0.0664 -0.33984,0.125 -0.51562,0.18359 l 3.21093,5.13281 c 0.3125,0.4961 0.98047,1.48438 1.97657,2.2461 -1.21094,0 -2.01172,0.0312 -3.03516,-1.58985 l -3.41797,-5.46875 -0.10547,0.0156 c -0.0898,0.29687 -0.15625,0.57422 -0.15625,0.84765 0,1.72266 1.12891,3.23829 2.48438,4.41016 -0.0898,0.0352 -0.23828,0.0508 -0.37891,0.0508 -0.28125,0 -0.46094,-0.0156 -0.58594,-0.0351 0.3125,0.71093 0.98829,1.63281 1.32813,2.10937 0.44141,-0.082 1.08594,-0.14453 1.50781,-0.14453 0.44141,0 0.49219,0.26172 0.49219,0.49219 0,0.39843 -0.1875,0.72265 -0.40625,0.89843 -0.082,-0.20703 -0.24609,-0.48046 -1.0625,-0.48046 l -0.082,0.004 c 0.24219,0.26563 0.98437,0.8711 0.98437,1.35547 0,0.32422 -0.35156,0.80469 -0.8164,0.80469 0.0273,-0.10156 0.0234,-0.19922 0.0234,-0.26953 0,-0.39453 -0.34765,-0.85547 -0.64453,-1.17578 0.008,0.0937 0.004,0.0859 0.004,0.19921 0,0.92969 -0.082,1.35547 -0.67578,1.35547 -0.28906,0 -0.48828,-0.16015 -0.5586,-0.20703 0.38672,-0.35156 0.40625,-0.63281 0.40625,-1.15234 l -0.004,-0.45313 c 0,-0.11718 0,-0.27734 0.0195,-0.39062 -0.21484,-0.0274 -0.29688,-0.0274 -0.46094,-0.0274 0,0 -0.83984,-0.0664 -1.04297,0.36719 -0.22656,-0.20703 -0.55468,-0.5 -0.55468,-0.82812 0,-0.21485 0.0977,-0.45703 0.53125,-0.45703 0.16406,0 0.67968,0.10156 1.11328,0.10156 -0.11719,-0.25781 -0.63282,-1.01172 -1.07813,-1.5625 -0.0703,0.21094 -0.17578,0.4414 -0.41015,0.6289 -0.0312,-0.35156 -0.23829,-1.46093 -0.78907,-2.11328 -0.0625,0.4375 -0.15234,0.89063 -0.15234,1.83985 0,2.3164 0.55859,4.02343 1.73828,4.35156 -0.15234,0.26953 -0.47656,0.50781 -0.81641,0.50781 -0.42968,0 -0.66406,-0.48828 -0.90625,-0.94922 -0.125,0.33985 -0.46875,1.17188 -0.8164,1.17188 -0.34375,0 -0.69141,-0.83203 -0.81641,-1.17188 -0.23828,0.46094 -0.47265,0.94922 -0.90625,0.94922 -0.33594,0 -0.66015,-0.23828 -0.8164,-0.50781 1.17968,-0.32813 1.73828,-2.03516 1.73828,-4.35156 0,-0.94922 -0.0859,-1.40235 -0.15235,-1.83985 -0.54687,0.65235 -0.7539,1.76172 -0.78515,2.11328 -0.23438,-0.1875 -0.34375,-0.41796 -0.41016,-0.6289 -0.44531,0.55078 -0.96094,1.30469 -1.07812,1.5625 0.43359,0 0.94921,-0.10156 1.11328,-0.10156 0.42968,0 0.53125,0.24218 0.53125,0.45703 0,0.32812 -0.33203,0.62109 -0.5586,0.82812 -0.19922,-0.43359 -1.03906,-0.36719 -1.03906,-0.36719 -0.16406,0 -0.25,0 -0.46094,0.0274 0.0156,0.11328 0.0195,0.27344 0.0195,0.39062 l -0.004,0.45313 c 0,0.51953 0.0195,0.80078 0.40234,1.15234 -0.0664,0.0469 -0.26953,0.20703 -0.55859,0.20703 -0.58985,0 -0.67578,-0.42578 -0.67578,-1.35547 0,-0.11328 -0.004,-0.10546 0.004,-0.19921 -0.29297,0.32031 -0.64062,0.78125 -0.64062,1.17578 0,0.0703 -0.004,0.16797 0.0234,0.26953 -0.46485,0 -0.82032,-0.48047 -0.82032,-0.80469 0,-0.48437 0.75,-1.08984 0.98828,-1.35547 l -0.0859,-0.004 c -0.8125,0 -0.98047,0.27343 -1.0586,0.48046 -0.21875,-0.17578 -0.40625,-0.5 -0.40625,-0.89843 0,-0.23047 0.0469,-0.49219 0.48828,-0.49219 0.42579,0 1.07032,0.0625 1.51172,0.14453 0.33985,-0.47656 1.01172,-1.39844 1.32813,-2.10937 -0.125,0.0195 -0.3086,0.0351 -0.58594,0.0351 -0.14062,0 -0.29297,-0.0156 -0.37891,-0.0508 1.35547,-1.17187 2.48047,-2.6875 2.48047,-4.41016 0,-0.27343 -0.0625,-0.55078 -0.15625,-0.84765 l -0.10156,-0.0156 -3.41797,5.46875 c -1.02344,1.6211 -1.82812,1.58985 -3.03515,1.58985 0.99609,-0.76172 1.66406,-1.75 1.97656,-2.2461 l 3.20703,-5.13281 c -0.17188,-0.0586 -0.33984,-0.11719 -0.51172,-0.18359 l -2.83594,4.54297 c -1.02343,1.61718 -1.82812,1.58984 -3.03515,1.58984 1.00781,-0.77344 1.66015,-1.74219 1.97656,-2.25 l 2.75781,-4.41016 c -0.16015,-0.0859 -0.30859,-0.17578 -0.46094,-0.27343 l -2.2539,3.61328 c -1.02735,1.62109 -1.82813,1.59375 -3.03906,1.59375 1.00781,-0.77344 1.66406,-1.74219 1.98046,-2.25 l 2.31641,-3.70703 c -0.13672,-0.125 -0.26562,-0.25391 -0.38672,-0.38282 l -1.64062,2.62891 c -1.02735,1.61719 -1.82813,1.58984 -3.03907,1.58984 1.00782,-0.76953 1.66407,-1.74609 1.98047,-2.25 l 1.90625,-3.05468 c -0.10156,-0.1875 -0.1875,-0.38282 -0.25781,-0.58204 l -0.96094,1.53516 c -1.02343,1.62109 -1.82422,1.58984 -3.03515,1.58984 1,-0.76562 1.66406,-1.75 1.98047,-2.25 l 1.86718,-2.99218 c 0.1836,-0.92578 0.66016,-1.78907 1.37891,-2.42969 -0.24219,-0.0898 -0.44141,-0.1875 -0.5625,-0.27734 1.22266,0 2.43359,-0.6211 3.09766,-0.6211 0.42968,0 0.70312,0.25391 0.70312,0.59375 -0.0273,0.37891 -0.41406,0.76172 -1.13281,0.76172 -0.16016,0 -0.36719,-0.0234 -0.59766,-0.0586 -0.38672,0.53906 -0.69922,1.02734 -0.69922,1.72656 0,1.30859 1.5625,2.33203 3.14453,2.33203 0.0898,0 0.17579,-0.008 0.26563,-0.0117 0.3125,-1.0625 0.98047,-1.75781 1.51172,-2.4375 -0.64063,-0.23437 -1.35156,-0.83984 -1.35156,-1.11328 0.082,-0.0469 1.30468,0.33594 1.43359,0.37109 0.0234,0.008 0.0508,0.008 0.082,0 0.14844,-0.0469 0.26953,-0.26171 0.26953,-0.28515 -0.1289,-0.0234 -0.89453,-0.1211 -1.42187,-0.3125 -0.39844,-0.14453 -0.59766,-0.41016 -0.59766,-0.50781 0.125,-0.0234 0.61328,0.23046 1.32422,0.23046 0.26172,0 0.31641,-0.008 0.57812,-0.043 -0.18359,-0.4336 -0.53125,-0.80469 -0.91796,-0.80469 -0.15625,0 -0.5,0.0976 -0.78516,0.23828 -0.19922,-0.30859 -0.375,-0.71484 -0.375,-0.9375 0,-0.26172 0.26172,-0.57031 0.99219,-0.57031 0.20312,0 0.39453,0.0195 0.57422,0.0508 0.14062,0.0273 0.26171,0.0586 0.39062,0.10937 -0.0117,-0.0156 -0.0156,-0.0547 -0.0156,-0.0937 0,-0.0976 0.0898,-0.20703 0.4375,-0.20703 0.60156,0 1.21875,0.19922 1.97656,0.19922 0.19531,0 0.32812,-0.008 0.4414,-0.0547 -0.0508,0.14844 -0.26171,0.375 -0.45703,0.55469 0.1211,0.16406 0.4336,0.55859 0.4336,1.20313 0,1.02734 -0.67969,1.8789 -0.67969,2.92187 0,0.61719 0.47656,1.16406 0.62109,1.48828"
       id="path89"
       inkscape:connector-curvature="0" />
    <path
       style="fill:#211e1e;fill-opacity:1;fill-rule:nonzero;stroke:none"
       d="m 271.98828,317.29687 c 0,-0.59375 -0.24609,-0.91796 -0.89453,-0.91796 -0.20313,0 -0.93359,0.0351 -0.93359,1.09375 l 0,1.70703 c 0,1.10547 0.32421,1.38672 0.93359,1.38672 0.46094,0 0.76953,-0.125 0.90234,-0.22266 l 0,-1.51563 -0.92968,0 0,-0.55859 1.57421,0 0,2.45703 c -0.41406,0.22266 -0.89843,0.37891 -1.54687,0.37891 -1.07031,0 -1.58984,-0.55469 -1.58984,-1.95313 l 0,-1.66015 c 0,-1.00782 0.51953,-1.65235 1.58984,-1.65235 1.08984,0 1.60937,0.39844 1.56641,1.45703 l -0.67188,0"
       id="path91"
       inkscape:connector-curvature="0" />
    <path
       style="fill:#211e1e;fill-opacity:1;fill-rule:nonzero;stroke:none"
       d="m 273.84375,321 0,-5.05469 2.60547,0 0,0.5625 -1.96094,0 0,1.6211 1.82031,0 0,0.5625 -1.82031,0 0,1.75 2,0 0,0.55859 -2.64453,0"
       id="path93"
       inkscape:connector-curvature="0" />
    <path
       style="fill:#211e1e;fill-opacity:1;fill-rule:nonzero;stroke:none"
       d="m 277.29687,321 0,-5.05469 2.50391,0 0,0.5625 -1.86328,0 0,1.6211 1.76562,0 0,0.5625 -1.76562,0 0,2.30859 -0.64063,0"
       id="path95"
       inkscape:connector-curvature="0" />
    <path
       style="fill:#211e1e;fill-opacity:1;fill-rule:nonzero;stroke:none"
       d="m 280.42969,319.15234 0,-1.66015 c 0,-1.00782 0.51953,-1.65235 1.58984,-1.65235 1.07031,0 1.58984,0.64453 1.58984,1.65235 l 0,1.66015 c 0,1.39844 -0.51953,1.95313 -1.58984,1.95313 -1.07031,0 -1.58984,-0.55469 -1.58984,-1.95313 z m 1.30859,-3.80078 -0.65625,0 0,-0.73047 0.65625,0 z m 1.21094,3.82813 0,-1.70703 c 0,-1.0586 -0.72656,-1.09375 -0.92969,-1.09375 -0.20312,0 -0.92969,0.0351 -0.92969,1.09375 l 0,1.70703 c 0,1.10547 0.32032,1.38672 0.92969,1.38672 0.60938,0 0.92969,-0.28125 0.92969,-1.38672 z m 0.0234,-3.82813 -0.66016,0 0,-0.73047 0.66016,0 0,0.73047"
       id="path97"
       inkscape:connector-curvature="0" />
    <path
       style="fill:#211e1e;fill-opacity:1;fill-rule:nonzero;stroke:none"
       d="m 285.35937,318.67578 0,2.32422 -0.64453,0 0,-5.05469 1.74219,0 c 0.89844,0 1.21094,0.62891 1.21094,1.26172 0,0.59375 -0.32813,1.05078 -0.92188,1.15234 l 0,0.0156 c 0.57813,0.0898 0.78907,0.28516 0.82422,1.30078 0.008,0.21875 0.0781,1.00781 0.17578,1.32422 l -0.67187,0 c -0.1836,-0.35156 -0.14063,-1.00781 -0.19531,-1.67969 -0.0508,-0.61719 -0.54688,-0.64453 -0.76563,-0.64453 z m 0,-0.55859 0.96485,0 c 0.46094,0 0.6875,-0.39844 0.6875,-0.83985 0,-0.36718 -0.1836,-0.76953 -0.67969,-0.76953 l -0.97266,0 0,1.60938"
       id="path99"
       inkscape:connector-curvature="0" />
    <path
       style="fill:#211e1e;fill-opacity:1;fill-rule:nonzero;stroke:none"
       d="m 288.63672,315.94531 1.55078,0 c 0.64453,0 1.10937,0.23047 1.35937,0.76953 0.20313,0.42969 0.22266,1.4375 0.22266,1.59766 0,1.07812 -0.0977,1.69922 -0.30469,2.03516 C 291.19141,320.78125 290.67969,321 289.79687,321 l -1.16015,0 z m 0.64062,4.4961 0.60938,0 c 0.89844,0 1.22656,-0.33594 1.22656,-1.51172 l 0,-1.02344 c 0,-1.02344 -0.31641,-1.39844 -0.98828,-1.39844 l -0.84766,0 0,3.9336"
       id="path101"
       inkscape:connector-curvature="0" />
    <path
       style="fill:#211e1e;fill-opacity:1;fill-rule:nonzero;stroke:none"
       d="m 292.89844,321 0,-5.05469 2.60547,0 0,0.5625 -1.96485,0 0,1.6211 1.82422,0 0,0.5625 -1.82422,0 0,1.75 2.00391,0 0,0.55859 -2.64453,0"
       id="path103"
       inkscape:connector-curvature="0" />
    <path
       style="fill:#211e1e;fill-opacity:1;fill-rule:nonzero;stroke:none"
       d="m 297.02734,318.67578 0,2.32422 -0.64453,0 0,-5.05469 1.7461,0 c 0.89453,0 1.21093,0.62891 1.21093,1.26172 0,0.59375 -0.33203,1.05078 -0.92578,1.15234 l 0,0.0156 c 0.58203,0.0898 0.78906,0.28516 0.82422,1.30078 0.008,0.21875 0.0781,1.00781 0.17578,1.32422 l -0.67187,0 c -0.17969,-0.35156 -0.14063,-1.00781 -0.19532,-1.67969 -0.0508,-0.61719 -0.54687,-0.64453 -0.76171,-0.64453 z m 0,-0.55859 0.96485,0 c 0.46093,0 0.6875,-0.39844 0.6875,-0.83985 0,-0.36718 -0.1836,-0.76953 -0.67969,-0.76953 l -0.97266,0 0,1.60938"
       id="path105"
       inkscape:connector-curvature="0" />
    <path
       style="fill:#211e1e;fill-opacity:1;fill-rule:nonzero;stroke:none"
       d="m 303.125,315.94531 0,0.5625 -1.32813,0 0,4.49219 -0.64453,0 0,-4.49219 -1.33203,0 0,-0.5625 3.30469,0"
       id="path107"
       inkscape:connector-curvature="0" />
    <path
       style="fill:#211e1e;fill-opacity:1;fill-rule:nonzero;stroke:none"
       d="m 307.10156,321 -0.77344,0 -1.46093,-5.05469 0.69922,0 1.15625,4.44531 0.0156,0 1.18359,-4.44531 0.65625,0 L 307.10156,321"
       id="path109"
       inkscape:connector-curvature="0" />
    <path
       style="fill:#211e1e;fill-opacity:1;fill-rule:nonzero;stroke:none"
       d="m 309.21484,319.15234 0,-1.66015 c 0,-1.00782 0.51563,-1.65235 1.58985,-1.65235 1.07031,0 1.58984,0.64453 1.58984,1.65235 l 0,1.66015 c 0,1.39844 -0.51953,1.95313 -1.58984,1.95313 -1.07422,0 -1.58985,-0.55469 -1.58985,-1.95313 z m 2.51953,0.0274 0,-1.70703 c 0,-1.0586 -0.72656,-1.09375 -0.92968,-1.09375 -0.20313,0 -0.9336,0.0351 -0.9336,1.09375 l 0,1.70703 c 0,1.10547 0.32422,1.38672 0.9336,1.38672 0.60547,0 0.92968,-0.28125 0.92968,-1.38672"
       id="path111"
       inkscape:connector-curvature="0" />
    <path
       style="fill:#211e1e;fill-opacity:1;fill-rule:nonzero;stroke:none"
       d="m 314.12109,321 -0.60156,0 0,-5.05469 1.04297,0 1.27344,4.24219 0.0156,0 1.28906,-4.24219 1.0625,0 0,5.05469 -0.64453,0 0,-4.49219 -0.0117,0 -1.41796,4.49219 -0.60938,0 -1.38281,-4.49219 -0.0156,0 0,4.49219"
       id="path113"
       inkscape:connector-curvature="0" />
  </g>
</svg>
