<?xml version="1.0" encoding="UTF-8" standalone="no"?>
<!-- Created with Make The Cut! -->

<svg
   xmlns:dc="http://purl.org/dc/elements/1.1/"
   xmlns:cc="http://creativecommons.org/ns#"
   xmlns:rdf="http://www.w3.org/1999/02/22-rdf-syntax-ns#"
   xmlns:svg="http://www.w3.org/2000/svg"
   xmlns="http://www.w3.org/2000/svg"
   xmlns:sodipodi="http://sodipodi.sourceforge.net/DTD/sodipodi-0.dtd"
   xmlns:inkscape="http://www.inkscape.org/namespaces/inkscape"
   mtc_dpi="90"
   version="1.1"
   id="svg2"
   inkscape:version="0.47pre4 "
   width="697.18182"
   height="698.08221"
   sodipodi:docname="doily-MissVickieDOTnet.svg">
  <metadata
     id="metadata222">
    <rdf:RDF>
      <cc:Work
         rdf:about="">
        <dc:format>image/svg+xml</dc:format>
        <dc:type
           rdf:resource="http://purl.org/dc/dcmitype/StillImage" />
      </cc:Work>
    </rdf:RDF>
  </metadata>
  <defs
     id="defs220">
    <inkscape:perspective
       sodipodi:type="inkscape:persp3d"
       inkscape:vp_x="0 : 0.5 : 1"
       inkscape:vp_y="0 : 1000 : 0"
       inkscape:vp_z="1 : 0.5 : 1"
       inkscape:persp3d-origin="0.5 : 0.33333333 : 1"
       id="perspective224" />
  </defs>
  <sodipodi:namedview
     pagecolor="#ffffff"
     bordercolor="#666666"
     borderopacity="1"
     objecttolerance="10"
     gridtolerance="10"
     guidetolerance="10"
     inkscape:pageopacity="0"
     inkscape:pageshadow="2"
     inkscape:window-width="1280"
     inkscape:window-height="660"
     id="namedview218"
     showgrid="false"
     inkscape:zoom="0.60463902"
     inkscape:cx="351.89378"
     inkscape:cy="347.34638"
     inkscape:window-x="-4"
     inkscape:window-y="-4"
     inkscape:window-maximized="1"
     inkscape:current-layer="svg2" />
  <path
     style="fill:#000000;stroke:none;stroke-width:3.59999989999999980;stroke-miterlimit:4;stroke-opacity:1;stroke-dasharray:none;fill-opacity:1"
     d="M 486.31452,9.3615427 C 478.78076,8.9267338 452.42002,33.544435 436.48698,55.911624 l -15.05706,21.167597 -12.5212,-2.16255 C 393.02683,72.20064 377.33248,78.67891 362.60728,93.99929 l -10.58911,11.0019 -5.17388,-7.435469 c -6.37635,-9.145257 -30.34774,-23.193384 -40.57202,-23.783475 -4.15918,-0.240046 -10.79342,0.571062 -14.72256,1.810962 -6.61828,2.088426 -8.29474,0.657123 -22.94338,-19.541937 -29.47917,-40.648981 -51.61385,-54.4761247 -62.87234,-39.28164 -6.69911,9.041125 -7.84936,39.963381 -2.57359,68.997592 l 4.06186,22.364947 -10.98014,9.10121 c -13.39705,11.11742 -19.27654,25.19987 -18.77988,44.99267 l 0.35785,14.95171 -14.13274,-0.81567 c -18.41335,-1.06272 -37.17528,7.04374 -46.73883,20.15295 l -7.27239,9.94124 -15.293011,-2.94857 c -19.937964,-3.81905 -57.429789,-5.95224 -67.204272,-3.81607 -4.224534,0.92323 -9.86667,4.68247 -12.56283,8.32122 -4.147021,5.59681 -4.461473,7.91983 -1.939422,15.16345 3.738317,10.73683 21.138837,28.03064 46.356982,46.12266 19.036817,13.65734 19.420651,14.17754 17.194449,23.15419 -3.343814,13.48307 3.531116,31.81547 17.282133,46.04101 l 11.726621,12.13333 -11.500365,11.60665 c -14.378867,14.55129 -20.550662,31.0534 -17.286592,46.23703 2.249988,10.46637 1.982464,11.14929 -6.972565,17.22061 -16.745125,11.3528 -49.141238,40.06186 -53.542439,47.46255 -12.351641,20.76944 -0.905702,31.5216 32.986523,31.01467 11.514613,-0.17239 30.099749,-2.00008 41.302807,-4.06443 l 20.374251,-3.73852 7.7759,10.62193 c 9.34406,12.76944 22.34316,18.09615 43.97335,18.0011 l 15.75026,-0.0926 -0.76345,13.22799 c -1.25544,21.64836 9.40316,44.03025 24.14861,50.72568 5.09925,2.31528 5.71942,4.04173 3.72555,10.29427 -1.31985,4.13868 -3.36534,23.11137 -4.56127,42.15096 -1.80197,28.68865 -1.41952,35.95306 2.28012,42.3893 10.6835,18.58587 33.77335,5.5696 64.1268,-36.14639 l 17.16844,-23.5812 10.47897,2.2951 c 15.17268,3.33265 33.33226,-3.29029 47.06875,-17.19152 l 11.37008,-11.52026 7.52459,9.01103 c 13.71503,16.40013 38.87809,25.5629 52.63806,19.18983 4.54031,-2.10291 7.58392,0.66438 20.70373,18.75533 18.30051,25.23476 31.76851,39.00587 44.04345,44.98747 24.35758,11.86921 32.79484,-16.92421 22.22686,-75.97053 l -3.88309,-21.66598 9.06551,-4.67292 c 13.25663,-6.82423 20.64112,-21.76244 21.83248,-44.19045 l 0.9813,-18.63067 13.98035,0.74427 c 18.35406,0.97937 35.9774,-6.08362 44.66601,-17.86232 l 6.92799,-9.39768 37.18623,3.8052 c 30.4599,3.11195 39.10742,3.10409 47.82912,0.006 5.85569,-2.08027 11.50379,-5.64877 12.54123,-7.94685 5.9485,-13.17659 -8.27689,-31.89526 -44.44942,-58.56467 -21.10807,-15.56264 -21.73542,-16.38509 -19.05247,-24.04397 4.80415,-13.71373 -0.45697,-30.41003 -14.60689,-46.29354 l -12.76041,-14.29023 8.70391,-8.16832 c 15.04577,-14.139 19.43743,-24.46323 18.74805,-43.89894 l -0.60073,-17.25077 15.41386,-10.53562 c 8.47642,-5.79229 22.08267,-16.82749 30.24408,-24.51686 31.13901,-29.33728 23.75706,-49.50635 -17.57417,-48.0299 -14.64077,0.52306 -44.83709,4.50012 -57.31178,7.55407 -2.64906,0.64853 -5.96334,-2.14968 -8.59612,-7.25736 -6.596,-12.7971 -25.02301,-21.76654 -44.72627,-21.76949 l -16.30817,-0.002 -0.52581,-15.83786 c -0.6571,-20.26764 -9.17338,-38.08942 -21.75723,-45.51674 -9.55629,-5.64019 -9.6096,-5.73542 -6.72043,-18.605637 4.36351,-19.437406 6.49054,-61.992924 3.59959,-72.131181 -2.60021,-9.118614 -8.78904,-14.718367 -16.8094,-15.1812593 z m 1.56922,8.6047113 c 3.25181,0.31043 5.79428,2.491229 7.73284,6.487586 3.5006,7.216641 2.02908,44.561606 -2.73498,69.082183 -1.68345,8.664807 -4.03261,15.699977 -5.22183,15.631347 -1.18923,-0.0686 -2.40713,-9.09899 -2.69215,-20.063454 -0.42521,-16.359088 -1.6934,-21.267554 -7.12286,-27.362119 l -6.61438,-7.424698 -10.32604,4.819282 c -5.67872,2.648136 -14.74632,9.952011 -20.1238,16.211173 -5.56786,6.480685 -10.4771,10.074797 -11.40675,8.35664 -1.90471,-3.520658 6.18728,-15.927149 26.37652,-40.484976 14.48011,-17.613259 24.97949,-25.935905 32.13343,-25.252964 z M 218.32721,17.684257 c 0.97066,0.03629 2.00788,0.224522 3.1276,0.587434 13.10305,4.246869 60.59676,62.682847 53.89388,66.309215 -1.71979,0.930454 -4.72743,-0.914726 -6.68231,-4.079304 -4.79094,-7.755619 -27.24525,-24.329008 -33.44564,-24.686862 -9.31856,-0.537818 -14.63273,10.99017 -14.85223,32.260328 -0.13381,12.967912 -1.21754,19.466192 -3.24503,19.345162 -4.20643,-0.25138 -10.3166,-41.733641 -9.4702,-64.246145 0.67225,-17.880923 3.87931,-25.743811 10.67393,-25.489828 z m 251.82187,46.148848 c 4.85642,0.280287 8.21801,16.174349 6.51727,30.80169 -1.30309,11.206825 -3.08613,15.357855 -7.77359,18.082135 -5.54726,3.22382 -6.19953,2.97706 -7.40939,-2.86919 -0.7305,-3.52858 -1.19928,-9.53167 -1.04613,-13.332423 0.2784,-6.876969 0.23772,-6.862819 -8.65208,1.848298 -4.91325,4.814325 -9.26706,8.317915 -9.68244,7.767515 -0.41517,-0.55038 -2.07133,-3.91728 -3.66916,-7.47383 -2.56337,-5.706282 -1.60734,-7.864322 8.07233,-18.377915 10.56654,-11.4769 18.14304,-16.763719 23.64319,-16.44628 z m -234.94414,0.933097 c 6.06148,0.438132 18.74007,9.391995 26.60977,19.471822 6.5974,8.450293 7.079,10.420967 3.93779,16.379106 l -3.58373,6.77351 -8.65907,-9.420827 -8.69027,-9.422627 -0.74724,12.947204 c -0.78811,13.65532 -1.27234,14.09238 -10.94296,9.54158 -4.86007,-2.28709 -6.00062,-5.21295 -5.78752,-14.701643 0.39498,-17.591479 2.14978,-28.04299 5.22518,-30.875226 0.59533,-0.548265 1.51556,-0.774035 2.63805,-0.692899 z m 170.23817,17.588142 c 10.97854,0.650762 20.55655,6.45965 25.66671,17.914896 4.60484,10.32311 4.44611,15.38172 -0.66709,19.14963 -3.01671,2.22311 -4.75755,1.83871 -7.32367,-1.64346 -13.93248,-18.90658 -43.48377,-18.155162 -62.9794,1.6239 -5.18575,5.26106 -9.76057,9.47695 -10.1798,9.33521 -0.41933,-0.14173 -5.85969,-4.80482 -12.08069,-10.33825 -16.57372,-14.74198 -29.73074,-18.406462 -45.2244,-12.59545 -6.78987,2.54659 -13.28727,5.95686 -14.4299,7.58742 -3.36867,4.80726 -7.31621,3.10756 -6.96371,-2.99998 0.5327,-9.22998 9.06958,-21.080473 18.00547,-25.066688 18.07029,-8.06106 39.32756,0.225165 55.00956,21.486528 l 8.96864,12.19327 4.86533,-7.82641 c 12.26553,-19.69065 31.28739,-29.771734 47.33295,-28.820616 z m 46.2266,27.772166 c 0.93283,-0.0813 1.76617,10.74583 1.8341,24.08318 0.068,13.33739 -0.294,24.63621 -0.79066,25.08988 -1.95982,1.79036 -3.29661,-4.57956 -4.28149,-20.18648 l -1.03103,-16.30525 -12.82203,11.18605 c -7.04791,6.16119 -13.51373,10.40954 -14.38014,9.43711 -1.52425,-1.711 28.04787,-33.0062 31.47125,-33.30449 z m 37.76753,6.74983 c 20.90059,1.42706 34.33709,23.85947 29.69348,54.98976 l -2.34091,15.6098 14.15447,-2.81411 c 36.14619,-7.1825 64.35885,15.98556 54.56931,44.84372 -1.81472,5.34905 -5.65648,10.8244 -8.52696,12.15388 -4.55306,2.10876 -5.35862,1.02093 -6.32942,-8.56643 -2.36388,-23.3457 -25.80137,-39.97819 -52.50201,-37.27453 -10.82504,1.09608 -11.34801,0.83406 -9.24654,-4.66552 1.22589,-3.20831 0.6759,-12.6604 -1.23066,-20.98077 -4.75216,-20.73861 -17.22446,-33.14126 -34.34057,-34.12911 -10.60166,-0.61187 -12.27725,-1.50723 -11.99549,-6.38928 0.23316,-4.03982 3.84039,-6.99618 12.54958,-10.26271 5.48883,-2.05861 10.72258,-2.84402 15.54572,-2.5147 z m -97.66017,-4.91648 c 0.62539,0.0234 1.28137,0.0739 1.96553,0.11344 12.72393,0.73436 26.50233,9.40139 26.09806,16.40599 -0.10792,1.86998 -4.64153,7.24461 -10.07966,11.93906 -7.25933,6.26661 -16.12371,9.93129 -33.3499,13.78883 -26.59777,5.9561 -24.89769,5.96027 -51.64853,-0.53933 -16.72346,-4.06328 -22.05352,-6.86613 -33.27061,-17.41469 l -13.36212,-12.54075 7.76127,-5.93767 c 4.25693,-3.25439 10.87642,-6.49361 14.72203,-7.22624 11.02665,-2.10062 29.88595,8.0026 40.2007,21.53961 8.6968,11.41364 9.41309,11.78505 12.57039,6.73548 1.83914,-2.94148 8.86558,-10.3221 15.62758,-16.40807 10.15985,-9.14409 13.38504,-10.80567 22.76526,-10.45566 z M 253.90657,111.703 c 2.83902,-0.11919 8.88839,6.32539 21.58687,19.18192 17.00798,17.21965 11.57095,18.20223 -6.42144,1.16319 l -13.05914,-12.36675 0.5636,16.8104 c 0.30314,9.24512 -0.63706,18.47968 -2.09134,20.50732 -1.45421,2.02752 -2.63364,2.43612 -2.61946,0.91309 0.0142,-1.52298 -0.0959,-13.23224 -0.2508,-26.02644 -0.16199,-13.38282 -0.54731,-20.06355 2.29171,-20.18273 z m -33.4259,4.80076 c 9.78757,0.44053 22.16063,5.25812 22.62203,9.38154 0.85429,7.63466 -0.49143,8.54965 -12.25085,8.33923 -15.08571,-0.27 -25.95776,5.29686 -32.807,16.85645 -2.74446,4.6318 -6.21413,14.10947 -7.69321,21.02916 l -2.66532,12.55479 -1.69708,-9.64506 c -5.50111,-31.48267 7.31216,-55.99855 30.50947,-58.40161 1.25171,-0.12967 2.58374,-0.17743 3.98196,-0.1145 z m 220.32731,21.82501 -0.006,34.80751 c -0.002,46.01553 -0.96112,48.75863 -9.68828,27.39353 -3.91726,-9.5898 -8.16766,-17.49969 -9.44064,-17.57316 -1.27278,-0.0735 -10.68871,3.08487 -20.90825,7.02572 l -18.56844,7.16075 17.54393,-17.61215 c 9.65025,-9.68804 22.83803,-22.9089 29.3046,-29.39158 l 11.76265,-11.81062 z m 30.82966,3.84526 c 10.34058,0.59179 21.49266,9.56893 26.7062,22.13805 4.32358,10.42384 4.80648,15.49339 2.61467,27.91579 -2.43946,13.82549 -2.24037,15.02539 2.32521,13.40625 11.62721,-4.12346 33.39774,-2.82466 43.29754,2.59276 10.74282,5.87884 18.04261,18.58018 16.12816,28.06966 -1.06942,5.30106 -3.09569,5.93104 -17.82321,5.63867 -14.89541,-0.29565 -18.60859,-1.59718 -36.10439,-12.78904 -15.85119,-10.13986 -22.02413,-16.35335 -32.96128,-33.07915 -11.2951,-17.27319 -13.60029,-23.12279 -14.39237,-36.45233 -0.90137,-15.17437 -0.63974,-15.92573 5.84228,-17.16063 1.42359,-0.27121 2.88991,-0.36459 4.3672,-0.28008 z m -206.15962,-1.00535 c 1.48028,0.34464 9.27369,7.26684 18.07115,16.09924 15.55559,15.61732 16.65836,17.5101 12.59396,21.51138 -2.45175,2.41377 -5.5149,7.53126 -6.79184,11.37757 -1.78794,5.38584 -3.23641,6.31582 -6.30992,4.11201 -2.19487,-1.57383 -7.22218,-3.05426 -11.17185,-3.30545 -7.05028,-0.44858 -7.16872,-0.87981 -7.472,-24.56509 -0.16986,-13.26882 0.23228,-24.62198 0.89151,-25.20926 0.0412,-0.0367 0.0902,-0.0434 0.18898,-0.0203 z m -36.7814,0.56915 c 1.24674,0.04 2.52737,0.13154 3.83196,0.31501 l 10.52573,1.48395 -0.0981,15.80185 c -0.0767,14.32331 -1.34452,17.71889 -13.5354,36.56209 -11.74973,18.16129 -16.20503,22.45904 -35.49283,34.10536 -20.57424,12.42317 -23.17577,13.24915 -38.55756,12.3614 -18.56914,-1.07172 -20.70356,-3.45223 -16.87776,-18.87885 4.32862,-17.45405 29.67772,-27.79317 52.15654,-21.28015 10.38442,3.00877 11.53027,2.86228 10.05482,-1.2039 -0.91762,-2.52885 -1.84145,-11.5593 -2.06463,-20.08984 -0.63979,-24.4512 11.3561,-39.77656 30.05727,-39.17697 z m 182.65272,12.9207 c 1.49282,0.0861 -1.20011,3.49573 -5.97936,7.60561 -6.08353,5.2313 -15.47549,8.85788 -31.30949,12.05977 -12.4395,2.5155 -23.77946,4.36419 -25.18532,4.11819 -28.29116,-4.95046 -55.22195,-15.93574 -55.20153,-22.49928 0.003,-0.87692 13.21226,1.2893 29.36628,4.79377 l 29.36989,6.35907 28.09705,-6.29779 c 15.46009,-3.46945 29.34976,-6.2255 30.84248,-6.13934 z m 37.85862,16.02048 c 0.7201,0.0416 8.71652,11.50236 17.78051,25.47306 14.80393,22.81822 18.6711,26.78145 38.07104,38.91451 11.8778,7.42859 23.64103,15.1278 26.15019,17.12895 3.89882,3.10937 2.97398,3.55542 -6.46342,2.97628 -7.71455,-0.47339 -16.88696,-4.41004 -30.42508,-13.02469 -16.28826,-10.36472 -21.62252,-15.8282 -33.36258,-34.26049 -8.94205,-14.03899 -13.78787,-24.69059 -13.50403,-29.60852 0.24386,-4.22522 1.03316,-7.64067 1.75337,-7.5991 z m -193.79916,-1.48144 0.26854,10.53297 c 0.20551,8.33593 -2.46767,14.63298 -12.8267,30.2487 -10.49297,15.81768 -17.0886,22.30113 -33.18413,32.61089 -14.38975,9.21715 -22.62864,12.7173 -29.10333,12.34361 -4.9685,-0.28675 -9.02526,-0.9065 -8.99882,-1.36452 0.0264,-0.45803 11.49332,-7.93467 25.46884,-16.62263 24.08607,-14.97329 26.2604,-17.16187 41.88321,-41.78115 l 16.49239,-25.96787 z m 130.52788,9.78712 c 2.59939,-0.0656 0.35126,2.7877 -8.7561,12.32847 -7.14644,7.48655 -16.49602,15.21232 -20.77414,17.1753 -8.80718,4.04123 -10.76509,2.51851 -21.71466,-16.96686 l -5.79182,-10.28831 10.83524,2.62868 c 9.83505,2.39137 21.88442,1.1704 43.67142,-4.42856 1.09462,-0.28128 1.93029,-0.43358 2.53006,-0.44872 z m -75.67832,3.08213 c 10.47716,0.60468 19.57475,11.52862 23.36027,28.04884 3.75354,16.37992 2.0232,24.05573 -2.31374,10.25873 -5.53541,-17.61034 -16.93997,-25.10941 -29.4356,-19.3219 -4.84206,2.24263 -5.44597,1.61627 -5.04863,-5.2684 0.53985,-9.35371 5.28107,-14.18803 13.4377,-13.71727 z m 355.08814,24.43786 c 9.53092,0.58353 16.51737,2.09611 18.61793,4.45514 6.67987,7.50164 -9.26862,26.77477 -42.73108,51.59235 -9.23654,6.85023 -17.9873,12.35913 -19.4272,12.27602 -4.77985,-0.27586 -2.45052,-4.52378 6.65337,-12.23071 28.79766,-24.3794 22.55598,-43.10582 -14.38142,-43.15033 -28.2693,-0.0341 -24.67981,-5.5067 6.83147,-10.43621 15.72102,-2.45931 32.1829,-3.25651 44.43693,-2.50626 z M 413.80416,194.02162 c 8.83216,0.20166 10.94052,10.18165 20.97267,34.70357 11.08658,27.0994 14.5441,38.50409 12.35304,40.87342 -7.27668,7.86885 -12.1534,2.35531 -23.91525,-27.11051 -13.64134,-34.17501 -9.29431,-32.68096 -48.31343,-16.56127 -25.06518,10.35493 -28.17742,10.51929 -30.86763,1.693 -1.23854,-4.06326 4.16781,-7.3828 30.05621,-18.54901 21.90795,-9.44933 32.84492,-15.20606 39.71439,-15.0492 z M 166.59583,182.91556 c 3.32787,0.22823 6.68017,0.76103 10.08356,1.55233 19.00049,4.41773 19.58513,10.39575 0.90214,9.31746 -10.33581,-0.59652 -17.84657,0.88996 -26.24854,5.18371 -13.98675,7.14782 -20.3609,16.52363 -21.20642,31.17365 -0.34107,5.90963 -1.52858,10.67967 -2.61608,10.6169 -4.80359,-0.27724 -9.81041,-13.87801 -9.17169,-24.9449 0.57721,-10.00104 2.36759,-13.59166 10.36724,-20.71833 10.01558,-8.92257 23.46902,-13.16963 37.88979,-12.18082 z m 282.16912,20.38587 11.1284,17.07583 c 6.37019,9.78843 14.72675,18.82404 19.56315,21.16236 4.64219,2.24443 8.38693,4.91512 8.32852,5.92723 -0.0584,1.01208 -7.7963,3.41981 -17.18124,5.36269 l -17.04385,3.52381 -3.39258,-9.5551 c -1.85192,-5.26659 -2.91851,-17.22779 -2.38012,-26.55626 l 0.97772,-16.94056 z m -177.09,-4.0855 c 11.48004,0.66257 14.41041,6.26009 6.25975,11.94302 -10.33483,7.20579 -11.70826,14.04821 -5.71409,28.49936 7.323,17.65485 4.04295,18.47046 -6.82823,1.70314 -6.7805,-10.458 -8.90577,-16.72676 -8.47273,-25.12368 0.66839,-12.96057 4.68238,-17.6032 14.7553,-17.02184 z m 41.15314,8.29122 c 4.65515,0.17501 6.51471,2.26154 9.44077,9.43464 3.86535,9.47562 3.77196,10.1513 -2.32999,17.05032 -3.49296,3.94927 -6.46404,9.49339 -6.62753,12.32611 -0.33708,5.84042 -2.31897,6.16317 -9.38282,1.4931 -2.71422,-1.79437 -8.55397,-2.75155 -12.99282,-2.12716 -6.93407,0.97535 -8.62838,-0.11433 -11.98586,-7.64081 -4.81104,-10.78484 -1.98752,-21.9009 5.46495,-21.47078 2.91892,0.16846 6.00844,1.60884 6.85932,3.18176 3.05104,5.63927 9.16225,3.15291 10.44967,-4.24871 1.02853,-5.91351 2.95114,-7.62835 8.91144,-7.96852 0.79001,-0.0451 1.5278,-0.055 2.19287,-0.03 z m 305.4016,19.19126 c 25.85568,0.98702 27.18277,9.15126 5.30662,29.54234 -10.68841,9.96295 -15.96123,11.41309 -22.99911,6.37291 -3.30722,-2.36851 -2.64177,-4.01297 4.06613,-10.2515 4.3999,-4.0921 8.03785,-8.01801 8.07751,-8.70529 0.0397,-0.68719 -5.45435,-1.10227 -12.21524,-0.95542 -11.2603,0.24456 -12.15513,-0.22505 -10.4896,-5.36331 2.88501,-8.90188 8.04647,-11.03458 25.69004,-10.69378 0.88519,0.0171 1.7296,0.0222 2.56364,0.0541 z m -214.72227,-2.87682 c 3.57905,0.4042 5.65264,3.29487 8.04781,9.16643 l 3.78486,9.26472 -11.09397,4.02372 c -10.42187,3.75666 -11.20491,3.70358 -12.50688,-0.78444 -0.76317,-2.63105 -3.04069,-6.97791 -5.07728,-9.65233 -3.30985,-4.34651 -2.77927,-5.28199 4.9488,-8.72936 5.43585,-2.4249 9.11305,-3.60311 11.89666,-3.28874 z M 55.345793,206.82644 c 3.757902,0.24093 7.836199,0.58419 12.211643,1.01781 18.181864,1.80189 35.182204,4.25561 37.780804,5.43592 9.49096,4.31085 4.01374,6.4802 -16.047974,6.33586 -15.196537,-0.10934 -22.10502,1.10773 -26.597705,4.72532 -9.860875,7.94015 -7.938159,14.99893 8.954923,33.03961 8.619626,9.20523 14.46047,17.39839 13.005012,18.1858 -3.785628,2.0481 -48.678984,-32.57197 -58.408481,-45.03399 -14.981576,-19.18911 -7.224594,-26.03539 29.101778,-23.70633 z m 192.482547,12.36115 c 0.29316,0.0259 0.44203,0.3249 0.41755,0.90056 -0.0979,2.30267 2.16901,9.21364 5.02856,15.37779 l 5.20563,11.22484 -6.43231,4.60578 c -4.53228,3.25623 -11.11425,4.33556 -22.43694,3.68207 -8.82015,-0.50905 -18.04524,-0.27609 -20.50078,0.50712 -8.06526,2.5725 -4.57251,-0.80542 11.30477,-10.92929 8.60121,-5.48434 18.4324,-14.1995 21.83792,-19.33635 2.55411,-3.85264 4.69615,-6.11097 5.5756,-6.03252 z m 125.84749,17.12339 c 2.3295,0.10199 4.00643,1.3126 6.53712,3.88311 2.84198,2.88693 4.97639,8.68784 4.73218,12.91912 -0.63338,10.97433 3.65962,12.50394 13.83441,4.89902 12.44252,-9.29993 18.26675,-8.1172 24.19533,4.90225 3.52182,7.73416 4.30314,6.76371 -10.52786,13.19657 -6.40306,2.77727 -18.37765,11.59901 -26.57949,19.59482 -8.20173,7.99582 -15.39893,14.51184 -16.01701,14.47617 -3.55009,-0.20489 -4.49553,-5.91539 -3.66698,-22.15434 0.81654,-16.0014 -0.70658,-25.32494 -6.90649,-42.4998 -1.19772,-3.31779 0.72423,-5.3632 7.07315,-7.57379 3.3144,-1.15399 5.51371,-1.72251 7.32564,-1.64313 z m 222.29405,14.86426 -17.1042,17.04279 c -9.39712,9.36163 -18.08862,16.95389 -19.31732,16.88376 -2.93243,-0.16724 -0.0578,-4.38385 12.21262,-17.98245 l 10.10064,-11.2179 -18.81059,-1.1169 c -13.17137,-0.78993 -17.54449,-1.85637 -14.5377,-3.56231 2.36308,-1.3408 13.99757,-1.89207 25.86387,-1.23055 l 21.59268,1.18361 z M 331.86735,236.12045 c 1.54958,0.0694 3.3729,0.67693 5.87776,1.74783 4.30276,1.83949 7.33531,5.0396 6.84363,7.25011 -0.48517,2.18097 -2.69899,10.77956 -4.92073,19.09195 -3.22495,12.06533 -3.465,19.15939 -1.18867,35.24005 1.56807,11.07869 2.74195,20.16023 2.62434,20.15345 -0.1176,-0.007 -6.63494,-7.41038 -14.48211,-16.45553 -12.81874,-14.77556 -35.4741,-30.6798 -44.58447,-31.27712 -4.70533,-0.30843 -4.00719,-6.04616 1.604,-13.14817 5.74956,-7.27721 13.65881,-7.07961 23.25279,0.62208 8.39063,6.73572 10.87841,5.67803 11.49122,-4.93985 0.23864,-4.13493 2.93301,-10.28736 6.01669,-13.67605 3.03265,-3.33253 4.88283,-4.72447 7.46555,-4.60875 z M 94.740782,226.59793 c 11.279218,0.51402 15.229428,1.88664 18.254958,6.40622 5.92916,8.85714 4.81497,9.98152 -9.16885,9.17445 l -12.978405,-0.74905 8.566063,9.9476 c 8.317302,9.63508 8.411292,10.00917 2.777552,12.6185 -9.026509,4.18079 -11.05792,3.25742 -24.892252,-11.26548 -20.232822,-21.2398 -15.941017,-27.65358 17.440934,-26.13224 z M 488.18989,256.7243 c 14.86418,0.74829 22.78367,14.37165 13.10314,25.70395 -5.10491,5.97587 -7.561,5.72265 -7.1869,-0.75912 0.75035,-13.00106 -19.72039,-17.56324 -36.09725,-8.03072 -7.83893,4.5629 -7.30133,3.7348 3.19857,-4.98023 7.35213,-6.10256 16.62675,-11.03335 22.15083,-11.7432 1.67437,-0.21514 3.29391,-0.26808 4.83161,-0.19068 z m -135.62838,-7.1078 3.20431,8.47997 c 4.75648,12.62657 2.43082,47.56816 -3.289,49.39255 -2.45551,0.7832 -4.80839,1.41279 -5.24487,1.3876 -1.49251,-0.0861 -3.01616,-20.9627 -2.37933,-32.5349 0.35016,-6.3568 2.22026,-14.95811 4.17198,-19.13515 l 3.53691,-7.59007 z m 197.9536,13.02123 c 1.88064,0.12988 3.47766,0.29187 4.66721,0.48849 l 8.65019,1.4383 -18.1895,17.95051 c -15.80322,15.57766 -18.6417,17.34895 -21.49941,13.47111 -1.8097,-2.4559 -5.96997,-5.03211 -9.24772,-5.72986 -3.76457,-0.80149 -5.41249,-2.76822 -4.48346,-5.29838 0.80887,-2.20288 1.75634,-7.95442 2.11636,-12.80559 0.64764,-8.7239 0.84637,-8.84363 17.33437,-9.64223 6.87652,-0.33304 15.01024,-0.26207 20.65196,0.12765 z m 41.18077,6.72772 c 2.13804,0.13041 5.00263,1.11219 9.53106,2.99164 28.26972,11.73311 27.82583,42.08175 -0.96143,66.55517 l -15.47166,13.16166 9.27896,5.73167 c 12.5045,7.69498 23.64944,22.47274 26.7486,35.50646 3.07515,12.93255 -3.0224,28.06346 -13.66673,33.95645 -8.74313,4.84042 -17.89516,6.92007 -20.01365,4.54188 -0.9299,-1.04383 1.61407,-5.38342 5.62658,-9.6293 4.0126,-4.24583 8.23953,-10.81318 9.41805,-14.57531 3.63351,-11.59986 -2.44829,-29.23482 -14.64307,-42.41418 l -11.31565,-12.20352 9.99991,-9.4708 c 19.77336,-18.68152 21.59914,-44.4291 4.3204,-60.75825 -7.02893,-6.64275 -7.62585,-8.29267 -4.13585,-11.31961 1.72656,-1.49758 3.14655,-2.20448 5.28448,-2.07396 z M 264.66249,256.71991 c 1.80641,0.13791 3.13953,0.81405 4.52008,1.95119 7.76727,6.39788 1.67709,11.45807 -27.58685,22.9486 -15.63117,6.13757 -28.02973,12.13263 -27.56264,13.30898 0.46705,1.17634 6.01922,14.7853 12.34118,30.23006 6.32192,15.44466 11.43449,29.12693 11.35964,30.42382 -0.0748,1.29695 -3.57567,2.17259 -7.78038,1.92991 -7.03133,-0.40581 -8.86892,-3.33142 -22.9784,-36.29053 -8.43741,-19.70945 -14.96455,-36.13935 -14.48232,-36.52012 1.82124,-1.43808 42.68751,-18.67262 57.1393,-24.09148 7.73522,-2.90043 12.0197,-4.12031 15.03039,-3.89043 z m -126.33905,-6.9786 c 16.32121,0.97112 22.36169,2.19558 19.40275,3.8744 -2.36311,1.34074 -10.83825,2.07441 -18.81311,1.63748 -7.97485,-0.43692 -14.5409,0.29067 -14.61815,1.62918 -0.0773,1.33853 3.98326,5.97507 9.04542,10.31958 5.06219,4.34453 10.38435,10.41612 11.80519,13.48385 1.42085,3.06772 1.60162,5.4544 0.41326,5.31389 -4.09145,-0.48368 -34.96324,-34.07751 -32.95702,-35.86478 1.10495,-0.98437 12.68696,-1.16923 25.72166,-0.3936 z m 340.66379,25.42088 c 2.83013,0.30323 5.04092,1.72955 6.92104,4.28089 2.56696,3.48335 2.25988,5.61403 -1.62854,10.86171 -4.98418,6.7268 -3.43408,10.07258 5.53864,11.96401 11.07064,2.33364 9.54293,15.18653 -2.36375,19.80295 -9.63075,3.7341 -16.65988,3.06159 -20.35853,-1.95753 -1.68384,-2.28497 -6.63968,-5.16404 -11.02479,-6.39586 -6.74937,-1.89605 -7.50967,-2.99744 -4.93689,-7.20268 1.67139,-2.73208 3.26227,-8.79664 3.53229,-13.47511 0.38285,-6.6335 2.54678,-9.59497 9.79171,-13.45817 6.24991,-3.3327 10.89004,-4.81008 14.52882,-4.42021 z m -256.67333,-12.52878 -19.35203,8.80584 c -21.66746,9.86546 -21.48015,9.23866 -10.45635,34.73648 3.20943,7.42342 5.48404,13.44607 5.0796,13.4087 -2.33794,-0.21566 -54.42048,-53.93089 -54.30089,-56.00304 0.0796,-1.37958 11.03441,-1.88539 24.32437,-1.13159 13.28993,0.7538 31.02707,1.10372 39.42721,0.77303 l 15.27809,-0.58942 z m 355.75827,21.50285 c 3.50606,0.24933 6.7601,3.07421 10.75182,8.41473 11.68744,15.63687 6.72976,33.41293 -14.13269,50.70744 -13.06252,10.82837 -13.06853,10.84921 -6.87836,14.50277 24.56802,14.50048 34.58397,42.02775 20.90996,57.48781 -3.37871,3.82001 -7.61505,6.82943 -9.40098,6.68819 -1.78604,-0.14114 -8.03822,-5.33732 -13.88956,-11.53822 -8.84048,-9.36852 -11.49451,-15.19436 -15.79208,-34.43588 -4.91391,-22.0007 -4.92695,-24.40056 -0.16331,-48.15191 4.27629,-21.32096 6.35503,-26.40587 14.23676,-34.61219 6.07719,-6.32764 10.38492,-9.34527 14.35844,-9.06274 z M 437.5229,280.93891 c 1.98851,0.11777 3.97448,1.30555 5.99186,3.56993 4.24001,4.75945 3.10391,16.43983 -2.21743,22.69118 -7.34852,8.6328 -5.74528,12.31442 5.69937,12.97495 11.75005,0.67815 16.93535,4.87316 16.38712,13.27876 -0.65755,10.08629 -3.95835,11.49405 -15.59981,6.70605 -10.98434,-4.51777 -51.55708,-6.31879 -63.53667,-2.82184 -3.21654,0.93886 -1.31746,-1.46531 4.45486,-5.59637 17.23597,-12.33513 31.89398,-27.82588 37.63537,-39.77257 3.64289,-7.57976 7.38913,-11.25418 11.18533,-11.03009 z m -17.37133,1.06335 c 4.01956,0.13914 1.26338,6.02082 -8.21926,18.21293 -5.38572,6.92426 -13.80161,15.36267 -18.7355,18.73285 l -8.99239,6.11703 -1.39545,-7.28 c -1.77607,-9.32314 11.01958,-24.32838 27.66626,-32.45983 4.63299,-2.26307 7.84925,-3.3862 9.67634,-3.32298 z m 127.56821,11.71354 c 0.14522,-0.008 0.24226,0.006 0.30848,0.0804 0.52972,0.59466 -1.78653,13.65294 -5.15019,29.03274 -6.54302,29.91644 -6.5681,29.31323 4.98997,80.0455 1.14314,5.01843 1.84782,9.07589 1.57705,9.01209 -0.27097,-0.0638 -3.51348,-3.10248 -7.18622,-6.73776 -4.5691,-4.52267 -8.32367,-14.01554 -11.91161,-30.08006 -4.94274,-22.12948 -4.97443,-24.82584 -0.44647,-47.04137 3.44128,-16.88274 6.57147,-25.24447 10.99614,-29.44659 2.97271,-2.82324 5.80653,-4.80707 6.82285,-4.86496 z m -432.2194,-24.38198 c 5.17195,0.31934 6.58299,3.40659 -0.28638,6.5882 -13.27937,6.15049 -19.988854,30.21991 -12.86966,46.17893 1.93653,4.34117 8.19195,12.60511 13.90075,18.39401 l 10.37794,10.55299 -8.81303,7.34817 c -11.1406,9.32178 -17.23891,21.54716 -18.08312,36.17442 -0.558859,9.68312 0.94015,13.24681 9.7165,23.09822 5.71232,6.41208 9.65182,12.72202 8.73756,14.02675 -2.05591,2.93388 -3.16665,2.80887 -14.84786,-1.98381 -5.358884,-2.19877 -11.851778,-8.04494 -15.146983,-13.61412 -10.878406,-18.38526 -4.684536,-36.47849 18.940893,-55.37564 8.39028,-6.71116 13.77304,-12.28933 11.98396,-12.39259 -1.78907,-0.10326 -8.54867,-4.29347 -15.01929,-9.31838 -28.554699,-22.17468 -27.292696,-57.56185 2.43137,-68.16064 3.47678,-1.23974 6.62641,-1.66168 8.9773,-1.51651 z m 168.21223,10.9291 c 8.49866,0.4905 29.62313,17.09138 40.75369,32.02639 l 6.01321,8.07864 -9.60658,-0.0536 c -7.77143,-0.0326 -11.80899,-2.3313 -21.30389,-12.15394 -12.30818,-12.73313 -21.09503,-28.19982 -15.85643,-27.89748 z m -12.77684,0.63988 c 2.04246,0.22667 3.39505,2.91766 6.36,9.66376 2.7551,6.26862 11.5139,17.69785 19.47421,25.4143 7.96052,7.7164 14.41861,14.84493 14.36038,15.85377 -0.0582,1.00885 -8.81473,2.07557 -19.44903,2.35203 -10.63433,0.27644 -25.26774,2.72598 -32.52416,5.44754 -7.25637,2.72159 -13.61112,4.91141 -14.14846,4.88039 -0.53741,-0.031 -1.63662,-3.40503 -2.41589,-7.4954 -1.84935,-9.70734 2.57744,-15.49813 12.9386,-17.00149 14.55054,-2.1112 15.76587,-4.09649 8.527,-13.78158 -7.65467,-10.24118 -6.98856,-18.23749 1.9468,-23.42675 2.22786,-1.29383 3.70507,-2.04258 4.93055,-1.90657 z m 235.30851,14.98935 c 7.58338,0.43767 17.02302,8.76904 16.67867,14.73548 -0.44595,7.72675 -14.03185,20.7022 -24.28161,23.17067 -14.83114,3.57184 -27.17527,4.42771 -27.02842,1.88329 0.0757,-1.31173 4.44483,-2.95457 9.7255,-3.63317 5.84902,-0.75158 12.65102,-4.44133 17.38587,-9.45145 7.40742,-7.83798 7.9431,-10.7658 4.02925,-22.08578 -1.27307,-3.68201 -0.38202,-4.84256 3.49074,-4.61904 z m -381.2161,-16.46132 c 1.2497,0.0721 7.69394,5.73739 14.32925,12.59656 10.83632,11.20192 12.54678,14.89732 16.74839,36.30659 4.51862,23.02485 4.47153,24.67501 -1.06422,48.26887 -5.1181,21.81401 -6.88438,25.48507 -16.60056,34.35057 -5.98344,5.45952 -12.27382,9.84039 -13.95958,9.7431 -3.8964,-0.22488 -15.73815,-14.5141 -17.73386,-21.40111 -3.72472,-12.85386 9.8399,-34.29008 28.2785,-44.69488 l 6.89187,-3.89061 -12.20848,-8.12319 c -22.68065,-15.11183 -29.64241,-43.10877 -14.15068,-56.90989 3.94303,-3.51274 8.21967,-6.31814 9.46937,-6.24601 z m 123.00261,8.38244 c 1.86188,0.0278 1.8193,1.56158 1.61679,5.07033 -0.20081,3.4794 1.41566,9.21581 3.5851,12.72772 3.58438,5.80244 3.54265,6.33965 -0.47771,6.10762 -2.43328,-0.14044 -7.68677,2.67515 -11.69163,6.24296 l -7.29271,6.49685 -4.77842,-13.20351 c -5.28774,-14.60786 -4.78036,-15.62861 10.41285,-20.96611 4.57481,-1.60718 7.1776,-2.49751 8.62573,-2.47586 z m -91.39796,2.6444 c 0.808,-0.0105 3.95043,3.04425 7.3188,7.15233 3.94723,4.81413 8.44823,16.86308 11.35964,30.42383 4.59728,21.4132 4.58511,23.55732 -0.53381,46.67178 -4.17104,18.83441 -6.95971,25.64344 -12.53453,30.60988 l -7.19191,6.37745 6.76887,-30.50441 6.73948,-30.53741 -6.48855,-29.67316 c -3.58049,-16.31038 -6.08086,-30.03632 -5.56458,-30.49629 0.0323,-0.0288 0.0728,-0.0233 0.12659,-0.024 z m 202.67032,21.87021 c 1.55641,0.0898 2.69775,2.06938 2.56295,4.40499 -0.17033,2.9513 1.99245,4.14371 7.10048,3.88433 10.71285,-0.54414 10.75805,5.63751 0.10228,14.49873 -10.41474,8.66084 -13.91657,9.37958 -15.46055,3.20826 -0.58023,-2.31925 -1.52587,-6.11545 -2.11043,-8.44814 -1.36583,-5.45033 4.11222,-17.76131 7.80527,-17.54817 z m 161.1246,20.38017 c 0.47262,0.0273 -0.0665,4.19225 -1.19168,9.25922 -1.13453,5.10844 -0.37919,16.38973 1.66853,25.32571 2.03107,8.86348 3.10707,16.61604 2.41742,17.23042 -2.36333,2.10532 -30.63134,-30.05877 -30.3717,-34.5574 0.19772,-3.42571 22.65865,-17.53607 27.47743,-17.25795 z M 181.08199,315.90869 c 2.99396,0.17279 25.7069,24.85425 28.83597,31.33855 3.99076,8.26985 2.2401,10.87811 -10.9083,15.9918 -5.73893,2.23205 -11.58943,4.5275 -12.97194,5.1048 -1.38246,0.57722 -1.4645,-3.10619 -0.2164,-8.18231 1.43001,-5.81615 0.68687,-15.71738 -1.99128,-26.78423 -2.33739,-9.65878 -3.57804,-17.51652 -2.74805,-17.46861 z m 141.15505,11.68384 c 2.95872,0.11968 6.92492,1.53222 10.35653,4.41657 10.32997,8.68272 13.18652,15.16672 7.97132,18.08309 -5.69869,3.18672 -24.29261,2.06779 -26.26529,-1.57849 -0.8575,-1.585 0.56276,-4.76274 3.13022,-7.05011 3.58254,-3.19147 3.98528,-5.09476 1.72328,-8.16427 -2.84284,-3.85781 -0.72012,-5.86059 3.08394,-5.70679 z m 153.02948,16.37584 c 6.02967,0.348 8.68934,4.62166 21.55053,34.45521 8.0737,18.72848 14.61064,35.38151 14.5159,37.02289 -0.0947,1.64145 -16.18892,9.46095 -35.77928,17.37356 -19.59027,7.91265 -36.02324,14.35448 -36.51112,14.32632 -2.81352,-0.16238 -6.97407,-9.21441 -5.61779,-12.21899 0.88422,-1.9587 13.85499,-8.26938 28.82432,-14.01872 14.96934,-5.74929 27.29404,-11.90735 27.39716,-13.69416 0.10313,-1.78689 -4.7326,-15.04473 -10.75679,-29.48127 -12.69025,-30.41249 -13.11603,-34.31273 -3.62293,-33.76484 z m -59.15049,-2.34959 c 13.06121,0.46843 35.41139,5.81471 35.22678,9.01345 -0.0674,1.16726 -3.61857,3.51196 -7.90709,5.20931 -4.28842,1.69731 -15.29585,3.11418 -24.43965,3.12826 -14.76765,0.0228 -17.24277,-0.77706 -22.22486,-7.04227 -6.27159,-7.88684 -6.21501,-7.91609 14.39221,-10.18766 1.39347,-0.1536 3.08677,-0.18801 4.95261,-0.12109 z m -119.76476,0.6003 c 7.21718,0.20331 8.10448,1.76653 10.27362,7.47938 1.63951,4.31825 2.65231,8.09615 2.27007,8.39474 -1.5022,1.17341 -34.18087,1.71192 -36.7208,0.60395 -1.48641,-0.64841 -6.07771,-2.14977 -10.20112,-3.31203 -16.27195,-4.58632 -1.80215,-12.17458 24.75896,-13.00127 4.09775,-0.12751 7.21358,-0.23254 9.61927,-0.16477 z m 82.14688,10.12502 c 6.29514,0.42553 12.10014,1.80439 13.17813,3.79687 0.96313,1.78005 -0.33451,4.24259 -2.9154,5.4974 -3.26026,1.58523 -4.31417,4.36846 -3.4068,9.13138 1.93108,10.13598 -5.63064,8.44841 -17.39892,-3.88396 -8.12962,-8.51949 -9.04539,-10.64825 -5.46228,-12.74215 2.94402,-1.72058 9.71004,-2.22512 16.00527,-1.79954 z m 79.50227,6.59178 c 1.75818,0.1188 2.84167,0.93464 3.95906,2.45094 1.67148,2.26826 2.03823,7.11495 0.83966,10.94156 -1.66568,5.31787 -4.96589,7.44095 -14.69393,9.4503 -14.36047,2.96629 -15.57745,5.96279 -6.38152,15.65832 7.74299,8.1636 7.94359,14.52843 0.67026,20.38499 -7.59447,6.11516 -10.7073,5.09749 -14.07255,-4.56844 -1.62824,-4.67679 -9.86303,-15.66263 -18.30986,-24.43934 -8.44673,-8.7767 -15.29063,-17.09102 -15.21107,-18.46963 0.0796,-1.37871 8.85265,-2.73076 19.48695,-3.00718 10.63429,-0.27648 25.04028,-2.64303 32.01244,-5.25797 6.07303,-2.27779 9.44001,-3.29628 11.70056,-3.14355 z m -109.11609,0.49493 c 0.59014,0.002 1.07339,0.17509 1.37875,0.51781 0.75916,0.85215 1.66932,6.97602 2.03168,13.60842 0.46993,8.59867 -0.59087,12.95562 -3.66427,15.2204 -3.49616,2.57641 -4.5722,2.29263 -5.76927,-1.45984 -0.94191,-2.95322 -3.50437,-4.22014 -7.0597,-3.50635 -7.39675,1.485 -8.92702,-2.09152 -4.49645,-10.49526 3.27756,-6.21683 13.44836,-13.90203 17.57926,-13.88518 z M 247.0177,357.43306 c 1.75115,-0.0591 4.32017,1.11646 9.12777,3.4692 7.79796,3.81621 16.19477,4.94874 37.02246,5.01652 l 26.94623,0.084 -15.5346,12.62589 c -8.54052,6.94618 -19.50597,19.29174 -24.37054,27.42261 -9.31789,15.57464 -12.77043,17.32307 -19.44265,9.83357 -5.50362,-6.17782 -4.84316,-11.25795 2.67329,-20.28592 7.76965,-9.3321 5.7983,-13.65735 -6.52669,-14.36868 -11.87543,-0.68539 -19.41822,-11.28423 -14.1593,-19.88012 1.57107,-2.56793 2.51288,-3.85799 4.26403,-3.91707 z m 222.4547,20.75831 c 1.42801,-0.228 2.83863,2.74033 6.25985,10.31533 3.13479,6.94068 5.69265,13.52164 5.69748,14.63384 0.005,1.11214 -5.0404,4.23687 -11.23198,6.95814 -13.42651,5.90096 -17.47659,6.07011 -14.99561,0.57442 1.0109,-2.23917 -0.11607,-7.47373 -2.49194,-11.60035 -3.55949,-6.18244 -3.64252,-7.85911 -0.44556,-9.63543 2.13396,-1.1856 5.40724,-2.10624 7.25361,-2.02292 1.84637,0.0832 4.96359,-2.45491 6.93216,-5.6725 1.28904,-2.10697 2.16529,-3.41371 3.02199,-3.55053 z m -244.81674,-12.40791 11.06631,0.7952 -10.73221,2.636 c -19.80862,4.86322 -29.2519,17.68014 -22.99191,31.19581 2.17853,4.70365 1.62088,5.4243 -3.76549,5.04141 -14.40795,-1.0241 -19.60359,-12.7217 -11.52533,-25.9259 4.5427,-7.42515 24.60745,-14.69632 37.94863,-13.74252 z m 283.03203,17.36807 c 0.78346,-0.0964 12.81231,11.21655 27.37268,25.77626 15.03019,15.02949 26.43463,28.05654 25.34308,28.94583 -1.09165,0.88922 -18.79362,1.40745 -39.34991,1.14085 l -37.37709,-0.4982 19.21284,-8.56346 c 10.55776,-4.71237 19.21749,-9.18739 19.26261,-9.96917 0.0451,-0.78169 -3.23326,-9.03537 -7.26865,-18.32426 -4.03539,-9.28893 -7.27876,-17.60944 -7.2286,-18.47845 0.002,-0.0272 0.008,-0.0263 0.033,-0.0293 z m -187.7748,-6.61159 c 1.0192,0.0588 2.31332,3.58072 2.8989,7.805 0.87028,6.27862 -1.14906,9.7528 -11.1436,18.9832 -6.72451,6.21041 -15.69056,12.86356 -19.91619,14.78327 -12.49903,5.6781 -13.12193,4.74905 -5.59317,-8.30482 4.92268,-8.53555 30.21804,-33.47073 33.75406,-33.26665 z m 66.82208,6.64249 c 7.63499,0.44065 11.5986,3.33521 22.59307,16.39152 7.33715,8.71323 13.28389,17.15029 13.19099,18.75997 -0.2603,4.51023 -6.14686,3.14055 -16.40058,-3.82634 -10.35434,-7.03523 -28.9753,-26.21253 -28.7772,-29.64486 0.0699,-1.21053 4.2983,-1.97437 9.39372,-1.68029 z m -158.1324,-6.05897 c 4.229,0.0375 7.81073,1.97096 12.33272,5.97052 3.68625,3.26042 9.03927,6.06215 11.91095,6.22789 4.85009,0.27992 4.89809,0.84437 0.70058,7.92854 -2.48536,4.19456 -3.9671,10.27412 -3.31571,13.51891 0.90846,4.52489 -1.07577,7.08069 -8.42913,11.00135 -9.49513,5.06265 -14.69522,5.70566 -21.21779,2.62557 -4.02539,-1.90087 -3.96568,-11.20128 0.0843,-13.39239 5.6923,-3.07961 3.101,-8.86904 -4.90806,-10.95725 -11.45343,-2.9862 -10.86399,-14.36528 1.00958,-19.662 4.8665,-2.17093 8.54333,-3.29031 11.83256,-3.26114 z m 136.17121,8.54773 c 1.51456,-0.0336 6.21745,4.52079 15.15532,14.55366 12.18006,13.67211 21.00067,20.83038 30.83104,24.97419 14.02506,5.91191 15.80921,9.1333 10.17922,18.33573 -3.83448,6.26736 -17.42468,6.21041 -22.06312,-0.0839 -1.75917,-2.38721 -5.51963,-4.48173 -8.37119,-4.64631 -4.16237,-0.24023 -5.29947,1.79054 -5.78568,10.21485 -0.33309,5.77128 -2.1752,11.88132 -4.10286,13.5987 -4.33766,3.86429 -16.91984,3.36403 -20.64359,-0.81582 -1.94878,-2.18764 -1.36892,-6.41725 1.95861,-14.41109 4.7022,-11.29641 6.06036,-44.05495 2.47203,-59.64415 -0.31562,-1.37116 -0.22242,-2.06271 0.37022,-2.07587 z m -28.81159,5.66182 c 0.7795,0.045 1.48148,10.36432 1.5558,22.94025 0.0817,13.79706 1.91654,27.20711 4.62316,33.79127 4.38541,10.66808 4.353,10.96921 -1.05381,14.46331 -10.95698,7.08062 -20.25052,1.08088 -21.78687,-14.09124 -1.2925,-12.764 -4.9943,-14.00934 -14.61801,-4.88164 -8.51107,8.07256 -15.44553,7.94471 -20.6045,-0.40663 -5.9152,-9.57557 -4.66903,-12.19968 8.02794,-17.06579 6.37415,-2.44288 18.5291,-11.27262 27.01977,-19.63202 8.49066,-8.35933 16.05692,-15.16251 16.83652,-15.11751 z m 19.39072,2.99725 c 1.51454,-0.0213 2.14862,1.38576 2.82937,4.67078 1.66291,8.02446 -0.0606,37.58664 -2.6528,45.42261 -1.1132,3.36435 -2.93842,6.05951 -4.03979,5.99595 -3.55069,-0.20493 -7.1843,-21.41377 -6.29995,-36.73653 0.67154,-11.6356 2.04736,-15.53418 6.28922,-17.85479 1.7389,-0.95133 2.9653,-1.48525 3.87395,-1.49802 z m 203.07357,23.02035 c 2.29396,-0.8113 36.44184,30.73133 36.54234,33.94317 0.0358,1.14498 -8.33876,1.62643 -18.5917,1.05552 -10.25284,-0.5709 -21.46264,-0.4359 -24.93271,0.28263 -7.11552,1.47347 -8.43578,-3.51498 -1.51653,-5.72189 2.45561,-0.78322 10.87216,-1.04479 18.72254,-0.60974 l 14.25927,0.79171 -12.37396,-13.39147 c -6.81319,-7.36441 -12.30121,-14.65182 -12.2137,-16.1681 0.006,-0.0955 0.0304,-0.15561 0.10445,-0.18178 z m 60.5361,9.25339 c 2.52717,-0.0254 12.17767,6.23691 28.77805,18.78311 34.24137,25.87901 44.8332,42.34007 31.24983,48.63138 -6.17113,2.85819 -36.51598,3.58778 -50.37124,1.1934 -38.9478,-6.73062 -43.2327,-10.11866 -14.1936,-11.14884 36.0005,-1.27715 41.92951,-13.6335 18.4695,-38.53108 -11.86677,-12.59385 -16.4597,-18.90253 -13.93254,-18.92797 z M 177.33681,405.7484 c 1.66174,-0.0331 3.27691,0.46156 5.11946,1.32843 3.53036,1.66103 8.74701,3.91995 11.60499,5.02076 3.96047,1.52541 4.37297,2.73337 1.77458,5.04814 -1.87502,1.67046 -3.62568,6.95797 -3.90302,11.7634 -0.47909,8.3009 -1.15922,8.77662 -13.42741,9.74252 -7.10219,0.55916 -18.42203,0.72099 -25.1859,0.33061 l -12.32324,-0.71123 11.77097,-12.49878 c 14.08059,-14.95484 19.58437,-19.92457 24.56957,-20.02385 z m 432.12513,30.35522 c 4.16491,0.2535 8.17707,4.22975 19.56871,16.18566 11.48438,12.05335 12.13077,19.44826 1.97933,22.65168 -3.9813,1.2563 -13.79565,1.89576 -21.80632,1.43343 -12.92769,-0.74612 -14.89182,-1.67004 -17.37598,-8.0771 -3.88405,-10.01753 -4.13318,-9.79511 10.47737,-9.06762 l 13.13985,0.6645 -10.02469,-9.62485 -10.02268,-9.65603 7.58836,-2.94266 c 2.66261,-1.03234 4.58294,-1.68217 6.47605,-1.56696 z m -402.3149,-22.40563 4.60093,8.68578 c 6.78002,12.75017 13.82037,14.24286 30.98499,6.57749 l 14.68426,-6.57108 -8.46926,7.90014 c -4.6592,4.34768 -12.61696,9.59313 -17.701,11.6557 -22.50723,9.13127 -39.40046,-2.41199 -29.06001,-19.86365 l 4.96009,-8.38438 z m -62.73894,5.04969 c 0.28176,-0.0314 0.46093,0.0388 0.51777,0.249 0.45469,1.68144 -4.21891,8.03287 -10.39289,14.11212 l -11.24957,11.05768 18.54724,1.8843 c 10.1941,1.03893 18.44664,3.08504 18.36299,4.53434 -0.0854,1.47901 -11.12476,1.9873 -25.17211,1.17657 l -25.02086,-1.44408 17.04896,-17.17118 c 8.20381,-8.27261 15.38618,-14.17867 17.35847,-14.39875 z m 119.50178,10.46544 c 4.40921,0.36182 8.96718,8.75164 17.65692,29.7856 14.19018,34.34804 10.25736,32.89698 47.32717,17.38082 23.00134,-9.62756 32.6518,-9.82932 32.12563,-0.71265 -0.20658,3.57943 -10.22446,8.96364 -36.92347,19.84298 -20.15633,8.21327 -37.19326,14.913 -37.82621,14.87647 -0.63284,-0.0365 -7.87042,-16.83569 -16.0944,-37.33312 -11.54981,-28.78695 -14.17762,-38.09916 -11.60239,-40.8614 1.90842,-2.047 3.61141,-3.12029 5.33675,-2.9787 z m 261.65172,17.3862 9.60901,0.55458 -6.87274,4.64296 c -3.78165,2.55769 -15.61249,10.11044 -26.29074,16.76301 -17.09443,10.64973 -21.32172,15.10603 -35.3922,37.24136 -8.78952,13.8274 -16.5873,25.08794 -17.34672,25.04211 -0.75918,-0.0448 -1.44424,-3.93552 -1.50331,-8.66351 -0.0735,-5.8906 4.15609,-15.09212 13.42429,-29.21254 11.18067,-17.03419 17.08781,-22.86968 34.1261,-33.74601 15.42902,-9.8489 23.0429,-13.03771 30.24631,-12.62196 z m -44.43038,0.22159 18.37562,1.06054 -15.18949,9.3591 c -8.34046,5.14936 -17.48009,13.32462 -20.33079,18.17125 l -5.17243,8.81036 -5.39937,-13.83409 c -2.96949,-7.60069 -5.33299,-14.98416 -5.24992,-16.42353 0.29205,-5.06013 14.77805,-8.19336 32.96638,-7.14363 z M 84.31913,427.23703 c 3.084489,0.0723 0.320826,5.32356 -8.576786,13.55959 -14.857609,13.75289 -19.670863,21.73582 -18.076985,30.10219 1.708429,8.96771 16.059418,14.2591 35.153993,12.9846 23.131118,-1.54392 21.639428,4.22726 -2.176255,8.41985 -20.707445,3.64539 -61.878523,4.35503 -67.962138,1.17981 -13.0321925,-6.80174 10.862898,-35.22011 51.990652,-61.79452 4.799969,-3.1015 8.031837,-4.48939 9.647519,-4.45152 z m 344.40583,22.41274 c 1.17108,-0.19155 4.24414,2.38649 8.84624,7.80393 12.7955,15.06219 15.04694,33.73838 5.15039,42.55496 -6.94545,6.1874 -7.64133,6.17579 -17.98576,-0.2242 -5.69012,-3.52029 -6.80571,-5.26911 -3.81619,-6.01112 14.45282,-3.58747 19.03046,-19.10907 10.39512,-35.30344 -3.02613,-5.67515 -3.76098,-8.62858 -2.5898,-8.82013 z M 575.4152,460.3384 c 2.30545,-0.12531 5.31686,2.73641 8.41615,8.74946 5.60468,10.8736 4.71644,22.03265 -2.56798,32.56239 -8.96323,12.95657 -21.25433,17.28634 -44.76721,15.82185 -17.32361,-1.07896 -19.95307,-0.61909 -18.65545,3.24298 0.8298,2.46942 1.7695,11.37376 2.08269,19.77786 0.72329,19.41573 -5.80027,33.53476 -18.67118,40.39755 -10.78093,5.74846 -22.95033,5.80182 -32.68784,0.14807 -11.1187,-6.45575 -9.47371,-12.19268 3.33071,-11.60863 21.91081,0.99953 37.97661,-16.88029 39.13592,-43.53611 l 0.72517,-16.3604 11.57804,0.60562 c 26.94531,1.41359 48.15612,-15.4502 47.86602,-38.05524 -0.0978,-7.62509 1.60223,-11.60337 4.21496,-11.7454 z m -34.85488,-1.3543 c 2.02645,0.075 4.28493,0.29669 7.00882,0.59233 l 15.1484,1.65683 0.26495,10.59537 c 0.52715,21.54029 -16.01151,32.41487 -44.54313,29.29465 -16.55567,-1.81068 -17.67766,-1.56037 -16.73907,3.6666 4.91804,27.38911 1.54009,41.13353 -12.75699,51.8198 -9.23014,6.89888 -24.41519,8.11589 -25.94364,2.0711 -0.48873,-1.93301 -1.32218,-9.25074 -1.84757,-16.25847 -0.86295,-11.50809 0.38248,-14.84666 12.84054,-34.28585 11.91712,-18.59495 16.84553,-23.45657 36.12583,-35.85304 17.39429,-11.1837 21.66109,-13.62406 30.44186,-13.29932 z m -143.69411,-6.19603 c 0.82399,0.0396 1.66294,0.40983 2.63251,1.02839 2.55754,1.63163 8.30819,2.63309 12.76719,2.23935 12.95484,-1.14408 21.9632,15.18228 13.82921,25.05721 -3.70751,4.50109 -4.94494,4.60295 -10.88627,0.9681 -8.11086,-4.96218 -12.82183,-2.9205 -13.32178,5.74195 -0.54464,9.4368 -8.08122,10.46173 -15.52231,2.10913 -7.85435,-8.81654 -7.74111,-11.17607 1.28992,-26.68877 4.51352,-7.75308 6.7395,-10.57474 9.21153,-10.45536 z M 97.277542,436.46776 c 1.491806,0.0129 2.983208,0.27876 4.526108,0.76206 l 6.88574,2.18162 -7.68454,8.94709 c -4.227052,4.92533 -7.715846,9.48965 -7.754755,10.16382 -0.03891,0.67412 5.678636,0.92981 12.708425,0.54565 l 12.78044,-0.70227 -4.75309,8.052 c -3.24917,5.48366 -7.59697,8.44585 -13.62059,9.29314 -10.160255,1.42919 -27.271803,0.41615 -32.224016,-1.9224 -5.642704,-2.66458 -3.268659,-10.90878 6.186108,-21.49177 10.084436,-11.28785 16.485693,-15.88483 22.95017,-15.82894 z m 147.886668,10.56987 c 8.59336,0.49596 10.76818,6.41586 11.29544,30.45142 0.24271,11.06178 0.12486,20.07179 -0.28063,20.04839 -0.40542,-0.0234 -5.22274,-7.09541 -10.7048,-15.7367 -5.48208,-8.64121 -13.33666,-17.36564 -17.44352,-19.38102 -4.10691,-2.01538 -8.04369,-4.75663 -8.75814,-6.07723 -1.63484,-3.02178 17.24407,-9.80395 25.89165,-9.30486 z m 65.56991,4.47299 c 0.16525,0.006 0.26125,0.0292 0.27543,0.10975 0.059,0.33569 2.07125,4.94609 4.4797,10.24389 2.40855,5.29784 4.02835,9.7615 3.59111,9.91088 -0.43703,0.14938 -5.01676,2.18898 -10.15209,4.5163 l -9.32103,4.21994 -4.9154,-9.20476 c -2.70093,-5.06532 -4.86636,-9.87906 -4.82877,-10.70226 0.0677,-1.32835 18.39394,-9.1807 20.87105,-9.09379 z m -130.50278,-5.34079 c 6.87991,0.33667 16.4025,4.61256 30.26607,13.61026 16.47076,10.68983 22.63299,16.83892 33.05848,33.02215 9.19284,14.26977 12.66619,22.42925 12.29201,28.91254 -0.28675,4.96843 -0.88979,9.02622 -1.33332,9.00062 -0.44357,-0.0256 -7.59243,-11.06705 -15.8949,-24.51908 -13.62888,-22.08172 -17.19101,-25.7655 -36.49735,-37.97853 -11.76121,-7.44007 -23.75694,-15.55426 -26.6614,-18.03491 -5.0323,-4.29782 -4.79936,-4.48143 4.77041,-4.01305 z m -17.82462,12.71284 c 10.59939,0.61174 17.39787,3.46077 33.83585,14.1293 17.10732,11.10283 22.87751,16.91497 34.28597,34.53289 12.72098,19.64473 13.65339,22.31116 12.87321,36.74028 -0.94049,17.39403 -3.48825,19.32903 -19.61136,14.92606 -18.17696,-4.96374 -25.4058,-19.52459 -22.46164,-45.24438 1.05218,-9.19166 1.29017,-16.74593 0.53015,-16.77857 -0.76006,-0.0325 -6.31426,1.01928 -12.34191,2.32398 -25.5343,5.52731 -50.99097,-9.22009 -49.85576,-28.88938 0.64781,-11.2243 3.74313,-12.8369 22.74549,-11.74018 z m -33.18763,1.21478 c 1.6996,0.24575 2.56267,3.21321 2.24667,8.80033 -1.20505,21.30458 17.51572,37.33194 45.15962,38.66628 l 15.54565,0.7407 0.69742,15.03391 c 1.25163,27.67596 16.26475,44.74765 39.06806,44.4186 9.15578,-0.13211 11.63874,0.8366 12.15516,4.70819 0.46001,3.44833 -2.92433,6.24738 -11.60351,9.59736 -13.8478,5.34499 -15.15179,5.40655 -24.44555,1.06199 -15.90641,-7.43565 -24.17149,-22.97552 -23.17924,-43.65809 0.37249,-7.76433 1.66271,-16.69151 2.86647,-19.83654 2.1559,-5.6325 1.97787,-5.67391 -12.58238,-2.72952 -25.22281,5.10044 -44.28567,-1.87839 -53.76892,-19.66201 -5.86958,-11.00699 -5.72265,-19.19041 0.52683,-29.7378 3.07417,-5.18831 5.61413,-7.64914 7.31372,-7.4034 z m 240.82337,15.43285 c 0.7628,0.14881 2.18631,3.13132 4.98724,9.58453 6.28802,14.48698 16.9181,20.92205 26.19297,15.84804 3.04908,-1.66811 6.18249,-2.99249 6.9626,-2.94747 2.48696,0.14354 0.84954,11.30307 -2.43328,16.66874 -4.26774,6.976 -16.89498,5.93055 -24.48738,-2.00802 -7.27274,-7.60428 -12.79542,-22.36137 -12.20084,-32.66351 0.17315,-3.00017 0.38538,-4.59805 0.97869,-4.48231 z m -104.51633,9.74408 c 0.0654,-0.018 0.1484,-0.004 0.21659,0.0438 1.09112,0.76466 5.11304,9.06641 8.95165,18.45269 l 6.99755,17.05652 16.53521,-7.18419 c 21.86093,-9.497 24.73353,-8.83446 13.1295,3.01151 -5.29814,5.4085 -17.85577,17.9143 -27.92829,27.7807 l -18.3143,17.94332 -0.38772,-20.39999 c -0.20317,-11.22133 -0.50956,-28.87589 -0.67829,-39.22925 -0.15821,-9.70621 0.49677,-17.20526 1.4781,-17.47512 z m 90.71147,5.4545 c 0.53643,-6.9e-4 0.97379,0.0995 1.29582,0.32521 2.09316,1.46675 17.68462,26.59471 17.58381,28.34149 -0.0266,0.46034 -5.95992,-0.083 -13.17163,-1.19842 -7.72391,-1.19445 -19.34609,-0.57547 -28.29129,1.52867 -8.35217,1.96462 -15.73782,3.56789 -16.41819,3.52862 -0.68036,-0.0393 3.40614,-5.12815 9.07116,-11.27732 10.26743,-11.14518 24.74412,-21.24151 29.93032,-21.24825 z m 65.37341,16.01209 c 0.52962,0.0688 1.0361,0.31114 1.55694,0.6846 2.05184,1.47119 7.05113,2.88777 11.11842,3.14586 l 7.42344,0.45969 -0.56152,24.91529 c -0.30161,13.70053 -1.20308,24.85096 -1.99493,24.80126 -0.79151,-0.0487 -8.57457,-7.66556 -17.30319,-16.93137 l -15.86797,-16.84854 6.7444,-11.09858 c 4.07284,-6.7265 6.58988,-9.42639 8.88442,-9.12826 z m -67.33065,17.90023 c 5.53592,0.27393 11.62625,1.53534 21.97355,3.80366 19.64846,4.30735 25.60156,6.79242 30.8396,12.89211 l 6.4807,7.57349 -6.7976,-2.08263 c -3.74394,-1.13469 -18.52595,-4.16748 -32.85317,-6.74792 -24.87607,-4.48042 -27.21989,-4.42096 -51.86876,1.10697 -14.19663,3.18378 -26.55394,5.72951 -27.46652,5.67684 -0.91248,-0.0527 0.75177,-2.97338 3.69242,-6.48552 3.79627,-4.53423 12.33436,-7.95338 29.48009,-11.82103 13.19523,-2.97664 19.40196,-4.26813 26.51969,-3.91597 z m 97.86265,18.76365 c 1.3932,0.0245 1.72926,3.89642 1.23449,12.77986 -0.46105,8.27828 -0.33132,19.74642 0.28141,25.49608 0.61263,5.74969 -0.005,10.33295 -1.33934,10.18975 -4.23613,-0.455 -36.58338,-35.15003 -32.60196,-34.96783 2.09565,0.0959 8.37566,4.79107 13.95257,10.44629 5.57702,5.65533 11.06709,10.34035 12.20189,10.40785 1.13469,0.0675 2.02117,-6.83997 1.98317,-15.38003 -0.0397,-8.9041 1.32008,-16.7721 3.15977,-18.41103 0.43706,-0.38927 0.80649,-0.56659 1.128,-0.56094 z m -97.44315,0.54259 c 5.61234,0.3104 11.83018,1.61535 22.49676,3.95907 22.58934,4.96343 25.99404,6.53681 34.81434,16.1578 11.22288,12.24191 11.7296,15.66647 3.3263,22.63552 -14.26506,11.83047 -34.5845,6.52808 -51.93078,-13.54595 l -11.97257,-13.83783 -5.77191,9.4331 c -3.18611,5.18086 -10.84375,12.62839 -17.0147,16.57842 -12.5858,8.05627 -26.63695,8.60313 -38.14754,1.46066 -10.78975,-6.69529 -10.40721,-10.90756 2.06859,-22.82498 9.80261,-9.36367 15.02716,-11.73577 35.55842,-16.25942 13.1788,-2.90368 19.3572,-4.15549 26.57309,-3.75639 z m -100.98173,0.0254 c 0.25824,-0.0837 0.54113,0.10205 0.81174,0.57898 1.34078,2.36311 2.07441,10.8383 1.63748,18.81311 -0.43693,7.9749 0.0796,14.52872 1.16121,14.59115 1.0816,0.0624 7.57708,-4.76319 14.42452,-10.74924 6.84738,-5.98597 13.01976,-10.23338 13.72323,-9.44372 0.70347,0.78964 -6.38612,8.96076 -15.76145,18.18455 l -17.02555,16.76561 -1.34072,-9.31147 c -1.89451,-13.46884 -0.12679,-38.62035 2.36949,-39.42897 z m 97.99262,28.44347 7.30022,8.55985 c 10.02165,11.74623 22.45732,18.01139 37.50577,18.87991 10.6977,0.61741 14.50598,-0.72334 24.28493,-8.58374 9.37509,-7.53582 11.88393,-8.48647 13.02348,-4.91402 2.53819,7.95793 -5.88733,23.77786 -15.34237,28.82012 -10.72403,5.71892 -27.06901,5.33915 -37.57382,-0.88518 -4.17839,-2.47581 -12.4579,-10.70646 -18.38374,-18.27711 -8.61953,-11.01179 -11.31983,-12.99865 -13.54631,-9.89071 -1.53066,2.13668 -2.85135,4.78689 -2.937,5.87178 -0.31029,3.91655 -18.87679,20.84255 -26.66419,24.31654 -19.32399,8.62023 -42.41634,-1.37504 -47.94556,-20.76582 -2.93809,-10.3037 2.98634,-16.71288 8.51365,-9.21225 4.98992,6.77146 17.20326,13.32587 25.77779,13.82074 11.66628,0.67332 31.504,-8.85763 39.11562,-18.7774 l 6.87153,-8.96271 z m 113.81462,15.17683 c 1.39772,-0.0608 3.33359,1.14448 6.0944,3.41933 5.08838,4.19271 7.55358,28.28193 4.04408,39.48612 -3.35096,10.69769 -13.16964,8.50342 -27.6264,-6.19585 -11.45683,-11.6491 -12.11097,-13.07132 -9.44121,-21.36072 l 2.86028,-8.8812 9.8662,9.11487 9.86621,9.11487 0.72743,-12.60403 c 0.47978,-8.31285 1.2796,-11.99202 3.60901,-12.09339 z m 20.97109,6.53168 c 1.68132,0.15744 4.20313,7.141 6.43411,20.31072 4.76689,28.13886 5.06209,58.10979 0.64295,65.33309 -6.11915,10.00165 -13.69871,6.42937 -34.83119,-16.4092 -17.94789,-19.3969 -32.31002,-41.39024 -29.56341,-45.30993 1.47907,-2.11061 3.46409,-1.21361 6.28096,2.89797 7.99276,11.66667 24.516,24.14018 32.63629,24.60884 11.4785,0.66248 17.99045,-13.20857 16.69839,-35.50309 -0.63178,-10.90046 0.21824,-16.06736 1.7019,-15.9284 z m -242.64746,-8.77689 -0.632,10.95053 c -0.82383,14.27415 2.85362,16.41519 11.11298,6.49485 8.15971,-9.80061 10.15058,-9.84869 11.94954,-0.4059 1.51624,7.95894 -9.59614,24.93729 -20.84051,31.88341 -10.01842,6.18885 -15.21214,4.02649 -17.69457,-7.43815 -1.25295,-5.78659 -1.9603,-15.77529 -1.599,-22.1915 0.57379,-10.17614 1.7457,-12.14531 9.18759,-15.46506 l 8.51597,-3.82818 z m -26.95297,8.71147 c 1.71112,-0.10171 3.00337,5.60218 3.21418,19.15452 0.58402,37.55011 11.1593,42.41607 38.2365,17.6074 9.29441,-8.51571 17.47649,-14.38512 18.18945,-13.06741 2.0756,3.83637 -32.51487,48.49628 -45.79481,59.11582 -6.66485,5.32978 -13.21488,9.62957 -14.54334,9.5529 -6.85214,-0.39547 -9.44778,-11.05135 -8.80066,-36.25481 0.80462,-31.34152 5.99495,-55.90014 9.49868,-56.10842 z"
     id="path4014" />
</svg>
